<?xml version="1.0" encoding="UTF-8"?>
<svg width="25px" height="25px" viewBox="0 0 25 25" version="1.1" xmlns="http://www.w3.org/2000/svg" xmlns:xlink="http://www.w3.org/1999/xlink">
    <!-- Generator: Sketch 62 (91390) - https://sketch.com -->
    <title>icons/rrss/email@1.5x</title>
    <desc>Created with Sketch.</desc>
    <g id="icons/rrss/email" stroke="none" stroke-width="1" fill="none" fill-rule="evenodd">
        <path d="M0.0583649443,6.31535015 L9.97915143,14.0794923 L10.1619101,14.2156363 C11.6963606,15.3047888 13.5095972,15.2594333 15.0199547,14.0801911 L15.0199547,14.0801911 L24.9418078,6.31635229 C24.9800653,6.5385042 25,6.76692409 25,7 L25,7 L25,18 C25,20.209139 23.209139,22 21,22 L21,22 L4,22 C1.790861,22 4.82321762e-14,20.209139 4.79616347e-14,18 L4.79616347e-14,18 L4.79616347e-14,7 C4.79330482e-14,6.7665736 0.0199947382,6.53781723 0.0583649443,6.31535015 Z M21,3 C22.2393865,3 23.3471195,3.56367569 24.0808228,4.44865099 L13.7882423,12.5044743 L13.6384886,12.6142486 C12.8379153,13.1631188 12.0084262,13.1264886 11.2108638,12.5037755 L11.2108638,12.5037755 L0.919177162,4.44865099 C1.65288054,3.56367569 2.76061352,3 4,3 L4,3 Z" id="Combined-Shape" fill="#1D79BE"></path>
        <g id="mail" transform="translate(-1.000000, 4.000000)"></g>
    </g>
</svg>