<?xml version="1.0" encoding="UTF-8"?>
<svg width="20px" height="16px" viewBox="0 0 20 16" version="1.1" xmlns="http://www.w3.org/2000/svg" xmlns:xlink="http://www.w3.org/1999/xlink">
    <!-- Generator: sketchtool 63.1 (101010) - https://sketch.com -->
    <title>08DC6479-5644-4108-AC4D-51179D46B59B</title>
    <desc>Created with sketchtool.</desc>
    <defs>
        <rect id="path-1" x="0" y="0.52688172" width="20" height="15" rx="2"></rect>
    </defs>
    <g id="Landing" stroke="none" stroke-width="1" fill="none" fill-rule="evenodd">
        <g id="D--Landing" transform="translate(-119.000000, -1845.000000)">
            <g id="uuee-flag" transform="translate(119.000000, 1845.000000)">
                <mask id="mask-2" fill="white">
                    <use xlink:href="#path-1"></use>
                </mask>
                <use id="Mask" fill="#D8D8D8" xlink:href="#path-1"></use>
                <g id="united-states-of-america-(1)" mask="url(#mask-2)">
                    <g transform="translate(0.000000, 0.526882)">
                        <rect id="Rectangle" fill="#F0F0F0" fill-rule="nonzero" x="0" y="0.098540146" width="22" height="14.5714286"></rect>
                        <g id="Group" stroke-width="1" fill="none" fill-rule="evenodd" transform="translate(0.000000, 2.027112)">
                            <rect id="Rectangle" fill="#D80027" fill-rule="nonzero" x="0" y="0.0426" width="22" height="1.82841429"></rect>
                            <rect id="Rectangle" fill="#D80027" fill-rule="nonzero" x="0" y="3.6999" width="22" height="1.82841429"></rect>
                            <rect id="Rectangle" fill="#D80027" fill-rule="nonzero" x="0" y="7.35672857" width="22" height="1.82841429"></rect>
                            <rect id="Rectangle" fill="#D80027" fill-rule="nonzero" x="0" y="11.0140286" width="22" height="1.82841429"></rect>
                        </g>
                        <rect id="Rectangle" fill="#2E52B2" fill-rule="nonzero" x="0" y="0.098540146" width="11.1067961" height="7.92857143"></rect>
                        <g id="Group" stroke-width="1" fill="none" fill-rule="evenodd" transform="translate(1.067961, 1.384254)">
                            <polygon id="Path" fill="#F0F0F0" fill-rule="nonzero" points="3.1690198 2.06160544 2.99202827 2.62246259 2.41954245 2.62246259 2.88277689 2.96890816 2.70578536 3.52972109 3.1690198 3.18327551 3.63195374 3.52972109 3.45500514 2.96890816 3.91823958 2.62246259 3.34571083 2.62246259"></polygon>
                            <polygon id="Path" fill="#F0F0F0" fill-rule="nonzero" points="3.34571083 4.64639456 3.1690198 4.08558163 2.99202827 4.64639456 2.41954245 4.64639456 2.88277689 4.99288435 2.70578536 5.55369728 3.1690198 5.20720748 3.63195374 5.55369728 3.45500514 4.99288435 3.91823958 4.64639456"></polygon>
                            <polygon id="Path" fill="#F0F0F0" fill-rule="nonzero" points="0.926254236 4.64639456 0.749520274 4.08558163 0.572528745 4.64639456 4.29278508e-05 4.64639456 0.463277365 4.99288435 0.286285837 5.55369728 0.749520274 5.20720748 1.21249714 5.55369728 1.03554854 4.99288435 1.49869713 4.64639456"></polygon>
                            <polygon id="Path" fill="#F0F0F0" fill-rule="nonzero" points="0.749520274 2.06160544 0.572528745 2.62246259 4.29278508e-05 2.62246259 0.463277365 2.96890816 0.286285837 3.52972109 0.749520274 3.18327551 1.21249714 3.52972109 1.03554854 2.96890816 1.49869713 2.62246259 0.926254236 2.62246259"></polygon>
                            <polygon id="Path" fill="#F0F0F0" fill-rule="nonzero" points="3.1690198 0.037585034 2.99202827 0.598486395 2.41954245 0.598486395 2.88277689 0.94497619 2.70578536 1.50578912 3.1690198 1.15929932 3.63195374 1.50578912 3.45500514 0.94497619 3.91823958 0.598486395 3.34571083 0.598486395"></polygon>
                            <polygon id="Path" fill="#F0F0F0" fill-rule="nonzero" points="0.749520274 0.037585034 0.572528745 0.598486395 4.29278508e-05 0.598486395 0.463277365 0.94497619 0.286285837 1.50578912 0.749520274 1.15929932 1.21249714 1.50578912 1.03554854 0.94497619 1.49869713 0.598486395 0.926254236 0.598486395"></polygon>
                            <polygon id="Path" fill="#F0F0F0" fill-rule="nonzero" points="5.58847639 2.06160544 5.41152779 2.62246259 4.83904198 2.62246259 5.30223349 2.96890816 5.12532781 3.52972109 5.58847639 3.18327551 6.05149619 3.52972109 5.87450466 2.96890816 6.3377391 2.62246259 5.76525328 2.62246259"></polygon>
                            <polygon id="Path" fill="#F0F0F0" fill-rule="nonzero" points="5.76525328 4.64639456 5.58847639 4.08558163 5.41152779 4.64639456 4.83904198 4.64639456 5.30223349 4.99288435 5.12532781 5.55369728 5.58847639 5.20720748 6.05149619 5.55369728 5.87450466 4.99288435 6.3377391 4.64639456"></polygon>
                            <polygon id="Path" fill="#F0F0F0" fill-rule="nonzero" points="8.18475281 4.64639456 8.00801885 4.08558163 7.83102732 4.64639456 7.25858443 4.64639456 7.72173301 4.99288435 7.54478441 5.55369728 8.00801885 5.20720748 8.47099572 5.55369728 8.29400419 4.99288435 8.75723863 4.64639456"></polygon>
                            <polygon id="Path" fill="#F0F0F0" fill-rule="nonzero" points="8.00801885 2.06160544 7.83102732 2.62246259 7.25858443 2.62246259 7.72173301 2.96890816 7.54478441 3.52972109 8.00801885 3.18327551 8.47099572 3.52972109 8.29400419 2.96890816 8.75723863 2.62246259 8.18475281 2.62246259"></polygon>
                            <polygon id="Path" fill="#F0F0F0" fill-rule="nonzero" points="5.58847639 0.037585034 5.41152779 0.598486395 4.83904198 0.598486395 5.30223349 0.94497619 5.12532781 1.50578912 5.58847639 1.15929932 6.05149619 1.50578912 5.87450466 0.94497619 6.3377391 0.598486395 5.76525328 0.598486395"></polygon>
                            <polygon id="Path" fill="#F0F0F0" fill-rule="nonzero" points="8.00801885 0.037585034 7.83102732 0.598486395 7.25858443 0.598486395 7.72173301 0.94497619 7.54478441 1.50578912 8.00801885 1.15929932 8.47099572 1.50578912 8.29400419 0.94497619 8.75723863 0.598486395 8.18475281 0.598486395"></polygon>
                        </g>
                    </g>
                </g>
            </g>
        </g>
    </g>
</svg>