<?xml version="1.0" encoding="UTF-8"?>
<svg width="20px" height="15px" viewBox="0 0 20 15" version="1.1" xmlns="http://www.w3.org/2000/svg" xmlns:xlink="http://www.w3.org/1999/xlink">
    <!-- Generator: sketchtool 63.1 (101010) - https://sketch.com -->
    <title>481233F0-B298-4118-B2BB-4A959D263AB5</title>
    <desc>Created with sketchtool.</desc>
    <defs>
        <rect id="path-1" x="0" y="0" width="20" height="15" rx="2"></rect>
    </defs>
    <g id="Landing" stroke="none" stroke-width="1" fill="none" fill-rule="evenodd">
        <g id="D--Landing" transform="translate(-119.000000, -1846.000000)">
            <g id="Pie-de-Pagina" transform="translate(0.000000, 1807.000000)">
                <g id="Group-2" transform="translate(97.000000, 39.000000)">
                    <g id="ES-2" transform="translate(22.000000, 0.000000)">
                        <g id="ES">
                            <mask id="mask-2" fill="white">
                                <use xlink:href="#path-1"></use>
                            </mask>
                            <use id="Mask" fill="#FFFFFF" xlink:href="#path-1"></use>
                            <rect id="Rectangle-2" fill="#DD172C" mask="url(#mask-2)" x="0" y="0" width="20" height="4"></rect>
                            <rect id="Rectangle-2" fill="#DD172C" mask="url(#mask-2)" x="0" y="11" width="20" height="4"></rect>
                            <rect id="Rectangle-2" fill="#FFD133" mask="url(#mask-2)" x="0" y="4" width="20" height="7"></rect>
                            <polygon id="Rectangle-139-Copy" fill="#FFEDB1" mask="url(#mask-2)" points="5.23809524 7 6.19047619 7 6.19047619 7.5 5.23809524 7.5"></polygon>
                            <path d="M5.27523868,9.1326625 C5.44755568,9.08278664 5.60238157,8.98134134 5.72074503,8.84761345 C5.84420825,8.70812382 5.92847496,8.53258564 5.94791429,8.34056294 L5.75265476,6.83333333 L4.43953491,7.22493309 L4.52662985,8.32232938 C4.54232136,8.52004244 4.62811002,8.70255743 4.75586806,8.84706771 C4.87774758,8.98492864 5.04048776,9.08414586 5.27523868,9.1326625 Z" id="Rectangle-137" stroke="#A41517" stroke-width="0.666666667" mask="url(#mask-2)"></path>
                            <polygon id="Rectangle-139" fill="#A41517" mask="url(#mask-2)" points="4.28571429 7.5 6.19047619 7.5 6.19047619 8 5.71428571 8 5.23809524 9 4.76190476 8 4.28571429 8"></polygon>
                            <rect id="Rectangle-135" fill="#A41517" mask="url(#mask-2)" x="2.85714286" y="6" width="1" height="3.5"></rect>
                            <rect id="Rectangle-135-Copy" fill="#A41517" mask="url(#mask-2)" x="6.66666667" y="6" width="1" height="3.5"></rect>
                            <path d="M4.28571429,5.5 C4.28571429,5.22385763 4.51927548,5 4.78616805,5 L5.69002242,5 C5.96641541,5 6.19047619,5.23193359 6.19047619,5.5 L6.19047619,5.66144562 C6.19047619,5.84842404 6.04101272,6 5.85869199,6 L4.61749849,6 C4.43425913,6 4.28571429,5.84375 4.28571429,5.66144562 L4.28571429,5.5 Z" id="Rectangle-138" fill="#A41517" mask="url(#mask-2)"></path>
                        </g>
                    </g>
                </g>
            </g>
        </g>
    </g>
</svg>