<?xml version="1.0" encoding="UTF-8"?>
<svg width="130px" height="28px" viewBox="0 0 130 28" version="1.1" xmlns="http://www.w3.org/2000/svg" xmlns:xlink="http://www.w3.org/1999/xlink">
    <!-- Generator: sketchtool 63.1 (101010) - https://sketch.com -->
    <title>C5293E06-2523-4FEC-B53F-E46DAAE7E3EE</title>
    <desc>Created with sketchtool.</desc>
    <g id="Login-&amp;-Registro" stroke="none" stroke-width="1" fill="none" fill-rule="evenodd">
        <g id="M--Register-1" transform="translate(-15.000000, -24.000000)" fill="#1D79BE">
            <g id="Logo/color" transform="translate(15.000000, 24.000000)">
                <g>
                    <g id="Group-18" transform="translate(64.488189, 0.000000)">
                        <path d="M63.2527831,0.434956125 C62.245754,0.434956125 61.4262752,1.25814273 61.4262752,2.27042707 C61.4262752,3.28239781 62.245754,4.10558442 63.2527831,4.10558442 C64.2601242,4.10558442 65.079291,3.28239781 65.079291,2.27042707 C65.079291,1.25814273 64.2601242,0.434956125 63.2527831,0.434956125 M63.2527831,4.54054054 C62.0073375,4.54054054 60.9937551,3.5222979 60.9937551,2.27042707 C60.9937551,1.01824264 62.0073375,0 63.2527831,0 C64.4985407,0 65.511811,1.01824264 65.511811,2.27042707 C65.511811,3.5222979 64.4985407,4.54054054 63.2527831,4.54054054" id="Fill-1"></path>
                        <path d="M63.2815984,2.59580251 C63.4325356,2.59580251 63.5456624,2.55951482 63.6200638,2.48729176 C63.6944652,2.4150687 63.7322757,2.30550103 63.7322757,2.15858876 C63.7322757,2.01379033 63.695075,1.9063365 63.6215884,1.83622729 C63.5477968,1.76576577 63.4343652,1.730535 63.2815984,1.730535 L62.7232829,1.730535 L62.7232829,2.59580251 L63.2815984,2.59580251 Z M64.0057924,3.67492073 C64.0057924,3.70698072 63.99512,3.73340379 63.9740803,3.75348533 C63.9527356,3.77356686 63.9283417,3.78378378 63.9005937,3.78378378 C63.8582093,3.78378378 63.8249726,3.76264533 63.8011885,3.7196638 L63.4307061,3.04323318 C63.3828331,2.95550858 63.3331305,2.89561629 63.2815984,2.86249937 C63.2300662,2.82973476 63.1602387,2.8131763 63.0718108,2.8131763 L62.7232829,2.8131763 L62.7232829,3.64638381 C62.7232829,3.68689919 62.7132204,3.71931149 62.6927905,3.74397302 C62.6726655,3.76828225 62.6458322,3.78061302 62.6129005,3.78061302 C62.5775293,3.78061302 62.5503911,3.76828225 62.5299612,3.74397302 C62.5098362,3.71931149 62.4997737,3.68689919 62.4997737,3.64638381 L62.4997737,1.64140118 C62.4997737,1.60299965 62.5101411,1.57234889 62.5311809,1.54839197 C62.5525256,1.52513966 62.5805785,1.51351351 62.6153399,1.51351351 L63.3008086,1.51351351 C63.5127306,1.51351351 63.6743402,1.56776889 63.7859423,1.67663194 C63.8975444,1.78479038 63.9530406,1.94438573 63.9530406,2.15541799 C63.9530406,2.33403795 63.9085217,2.47777946 63.819179,2.58664251 C63.7298363,2.69480095 63.6023782,2.76103478 63.4364996,2.78428708 C63.4822382,2.80155015 63.5240128,2.82903015 63.5606036,2.86743168 C63.5974994,2.90583321 63.6343952,2.95867935 63.671291,3.02702703 L63.9865822,3.60164075 C63.999389,3.62524536 64.0057924,3.64955458 64.0057924,3.67492073 L64.0057924,3.67492073 Z" id="Fill-3"></path>
                        <path d="M63.6486042,1.84397174 C63.7264049,1.92857413 63.7657063,2.0500708 63.7657063,2.20623538 C63.7657063,2.30133356 63.7512691,2.38434568 63.7223946,2.45431758 C63.7571509,2.38657206 63.7742617,2.30355993 63.7742617,2.20337289 C63.7742617,2.0459361 63.7370992,1.93175467 63.6606353,1.85510363 C63.6566249,1.85128698 63.6528819,1.84747033 63.6486042,1.84397174 L63.6486042,1.84397174 Z M62.8812913,2.49057575 L63.2780482,2.49057575 C63.387397,2.49057575 63.4673366,2.46640364 63.5154607,2.41869552 C63.5593072,2.37480406 63.5804283,2.30546826 63.5804283,2.20623538 C63.5804283,2.10922887 63.5598419,2.0418014 63.5173322,2.00013631 C63.4700101,1.95370041 63.3895359,1.9301644 63.2780482,1.9301644 L62.8812913,1.9301644 L62.8812913,2.49057575 Z M63.2542535,2.71130531 C63.2791177,2.72021082 63.3021103,2.73134272 63.3229641,2.74501905 L63.3234988,2.74565515 C63.3264397,2.73229688 63.3309848,2.72021082 63.337134,2.70939698 C63.3181517,2.7106692 63.2983673,2.71130531 63.2780482,2.71130531 L63.2542535,2.71130531 Z M62.6941418,1.73392501 L62.6850517,3.5493779 L62.6968154,3.55987369 L62.6960133,2.79717992 C62.6960133,2.75424261 62.7163324,2.71734834 62.746009,2.6989012 C62.7163324,2.68077211 62.6960133,2.64387784 62.6960133,2.60094053 L62.6960133,1.82011768 C62.6960133,1.78513173 62.7093812,1.75459853 62.730235,1.73392501 L62.6941418,1.73392501 Z M63.8271983,3.57514028 L63.8852146,3.64606635 L63.8360211,3.57514028 L63.9130197,3.57514028 L63.8360211,3.57514028 L63.8261289,3.56082785 C63.8245247,3.56241812 63.8229206,3.56559866 63.8215838,3.5687792 L63.8271983,3.57514028 L63.8205144,3.57514028 L63.8271983,3.57514028 Z M63.8210491,3.78378378 C63.7523385,3.78378378 63.6937875,3.74529924 63.6558228,3.67564538 L63.3307175,3.06339121 C63.2890099,2.98578601 63.2545209,2.95239033 63.2331324,2.93807789 C63.2026537,2.91804048 63.1542622,2.9075447 63.094107,2.9075447 L62.8812913,2.9075447 L62.8812913,3.5493779 C62.8812913,3.63111781 62.8526842,3.68359674 62.8291568,3.71349382 C62.7935984,3.75770335 62.7462763,3.7809213 62.6917356,3.7809213 C62.6211535,3.7809213 62.5767724,3.74434507 62.5521756,3.71349382 C62.5283809,3.68391479 62.4997737,3.63143586 62.4997737,3.5493779 L62.4997737,1.73933193 C62.4997737,1.67476695 62.5190234,1.61815332 62.5559186,1.57585212 C62.5922791,1.53514119 62.6398685,1.51351351 62.6941418,1.51351351 L63.295159,1.51351351 C63.5023603,1.51351351 63.6654477,1.57203547 63.7801436,1.68653495 C63.8991172,1.8061233 63.9595397,1.9800989 63.9595397,2.20337289 C63.9595397,2.39325119 63.9114156,2.54973382 63.8167714,2.668368 C63.765439,2.73229688 63.7031449,2.78254943 63.6296219,2.8188076 C63.6528819,2.85093107 63.6756072,2.8881434 63.6985999,2.93171681 L63.9745117,3.45014502 C63.9953655,3.48926567 64.0057924,3.53156687 64.0057924,3.57514028 C64.0057924,3.63684278 63.9838692,3.6921842 63.944033,3.7309868 C63.9090094,3.7656547 63.8662323,3.78378378 63.8210491,3.78378378 L63.8210491,3.78378378 Z" id="Fill-5"></path>
                        <path d="M10.5098539,7.55474899 L9.91411093,12.8648649 L7.28669961,12.8648649 L7.83982234,7.93516145 C7.95984841,6.86300623 7.33308044,6.36100915 6.49227121,6.36100915 C5.52861546,6.36100915 4.80062447,6.91458758 4.6630489,8.14240795 L4.13342996,12.8648649 L1.50601864,12.8648649 L2.86422483,0.756756757 L5.49132277,0.756756757 L5.01247204,5.02910497 C5.55744679,4.3892506 6.47973585,3.97414353 7.63549598,3.97414353 C9.40517534,3.97414353 10.7718429,5.21977175 10.5098539,7.55474899" id="Fill-7"></path>
                        <path d="M18.0195352,8.32432432 C18.1624035,7.03448476 17.3900506,6.22577826 16.2002014,6.22577826 C15.0094264,6.22577826 14.0571767,7.03448476 13.9139998,8.32432432 C13.7705144,9.61446917 14.5434844,10.4228704 15.7342593,10.4228704 C16.9241086,10.4228704 17.8757412,9.61446917 18.0195352,8.32432432 L18.0195352,8.32432432 Z M21.084261,4.02435031 L20.128617,12.6239931 L17.5415589,12.6239931 L17.631353,11.8158971 C16.9898342,12.4692123 16.1002244,12.8648649 14.9446265,12.8648649 C12.6852706,12.8648649 11.0424393,10.8869073 11.3272502,8.32432432 C11.6117526,5.76143601 13.6936802,3.78378378 15.9533447,3.78378378 C17.1089426,3.78378378 17.9106097,4.17943634 18.4074088,4.83275153 L18.4972029,4.02435031 L21.084261,4.02435031 Z" id="Fill-9"></path>
                        <path d="M30.8411043,7.44105379 L30.2456541,12.8648649 L27.6181517,12.8648649 L28.1709802,7.82961129 C28.2910104,6.73450008 27.6642207,6.22175472 26.8233823,6.22175472 C25.8600066,6.22175472 25.1319904,6.78718585 24.99441,8.04129515 L24.4644593,12.8648649 L21.8372703,12.8648649 L22.8075408,4.0309051 L25.4350432,4.0309051 L25.3438453,4.86133307 C25.8888389,4.20777873 26.8111599,3.78378378 27.9669601,3.78378378 C29.7363874,3.78378378 31.1031024,5.05608222 30.8411043,7.44105379" id="Fill-11"></path>
                        <path d="M39.1872489,8.27271637 C39.3192211,7.05316708 38.5456231,6.22256869 37.31924,6.22256869 C36.0922387,6.22256869 35.1384538,7.05316708 35.0064816,8.27271637 C34.8745095,9.49195199 35.6481075,10.321923 36.8751088,10.321923 C38.1011828,10.321923 39.0549677,9.49195199 39.1872489,8.27271637 L39.1872489,8.27271637 Z M42.168522,4.03126948 L41.2598612,12.425081 C40.938121,15.3939683 38.5391326,16.6486486 36.2418278,16.6486486 C34.4449045,16.6486486 33.0166997,15.9595155 32.3794009,14.5103597 L34.732029,13.2026691 C34.9935008,13.8209128 35.4407227,14.3155706 36.5805666,14.3155706 C37.789951,14.3155706 38.6012554,13.680075 38.7372454,12.425081 L38.8253299,11.6123618 C38.1772136,12.3369397 37.3016231,12.7610216 36.1790869,12.7610216 C33.7260116,12.7610216 32.1509994,10.7108739 32.4152528,8.27271637 C32.6791971,5.83393146 34.6983405,3.78378378 37.1511068,3.78378378 C38.273952,3.78378378 39.0574402,4.20817941 39.5488589,4.93244363 L39.6462154,4.03126948 L42.168522,4.03126948 Z" id="Fill-13"></path>
                        <path d="M49.6461387,8.32432432 C49.7893201,7.03448476 49.0166343,6.22577826 47.8267475,6.22577826 C46.6362436,6.22577826 45.6839639,7.03448476 45.5407825,8.32432432 C45.3969839,9.61446917 46.1696697,10.4228704 47.3607908,10.4228704 C48.5506776,10.4228704 49.5023401,9.61446917 49.6461387,8.32432432 L49.6461387,8.32432432 Z M52.7106525,4.02435031 L51.7555956,12.6239931 L49.1681473,12.6239931 L49.2582529,11.8158971 C48.6164052,12.4692123 47.7267674,12.8648649 46.5711331,12.8648649 C44.311706,12.8648649 42.6688229,10.8869073 42.9536428,8.32432432 C43.2378455,5.76143601 45.3204559,3.78378378 47.5801916,3.78378378 C48.7358259,3.78378378 49.5372097,4.17943634 50.0334073,4.83275153 L50.1235129,4.02435031 L52.7106525,4.02435031 Z" id="Fill-15"></path>
                        <path d="M59.4877364,3.78378378 L59.169391,6.81081081 C58.1405882,6.63254588 56.606907,7.07820821 56.4212811,8.84062887 L55.9983322,12.8648649 L53.4636619,12.8648649 L54.3993495,3.96141657 L56.9343221,3.96141657 L56.7677425,5.54652052 C57.2312026,4.35366263 58.4232596,3.78378378 59.4877364,3.78378378" id="Fill-17"></path>
                        <path d="M0.0314514605,23.4591542 C0.325271998,20.8968764 2.5628284,18.9189189 5.26737801,18.9189189 C6.99337471,18.9189189 8.42268589,19.7960098 9.03611187,21.1203469 L6.55566806,22.4278931 C6.32233062,21.8258662 5.72291126,21.4641006 4.9401326,21.4641006 C3.78331371,21.4641006 2.83659402,22.2728071 2.70066621,23.4591542 C2.56442006,24.6461119 3.32650713,25.4545131 4.48300769,25.4545131 C5.26578635,25.4545131 5.96579866,25.0936633 6.3191473,24.4916364 L8.50258725,25.7811707 C7.58356245,27.1229091 5.97057364,28 4.22675034,28 C1.52251907,28 -0.261732413,26.0220425 0.0314514605,23.4591542" id="Fill-19"></path>
                        <path d="M15.5689986,22.5646619 C15.4038669,21.567593 14.6674105,21.2067432 13.8908287,21.2067432 C12.9071377,21.2067432 12.1981518,21.6884868 11.8595547,22.5646619 L15.5689986,22.5646619 Z M13.6337171,25.6950796 C14.3408511,25.6950796 14.9757592,25.4203209 15.3621982,25.0414591 L17.3005663,26.2284168 C16.3255177,27.3979731 14.9825497,28 13.3432705,28 C10.392815,28 8.78409299,26.0217372 9.0683664,23.4591542 C9.35325712,20.8968764 11.4360768,18.9189189 14.1624471,18.9189189 C16.6813997,18.9189189 18.3280866,20.8620737 18.0394919,23.4591542 C17.9996751,23.8206145 17.9271407,24.1640629 17.8215799,24.4916364 L11.697201,24.4916364 C11.9252987,25.3852128 12.6849044,25.6950796 13.6337171,25.6950796 L13.6337171,25.6950796 Z" id="Fill-21"></path>
                        <path d="M27.8290681,22.5758753 L27.2336386,28 L24.6059139,28 L25.1587232,22.9644328 C25.2790627,21.8693216 24.6522947,21.3572035 23.8114855,21.3572035 C22.8478298,21.3572035 22.1198388,21.9226346 21.9822632,23.1767439 L21.4526443,28 L18.8252331,28 L19.7951565,19.1660402 L22.4225677,19.1660402 L22.331373,19.9967818 C22.8763477,19.3429139 23.7989502,18.9189189 24.9550237,18.9189189 C26.7243896,18.9189189 28.0910571,20.1909038 27.8290681,22.5758753" id="Fill-23"></path>
                        <path d="M32.5849987,21.6559969 L32.246158,24.7773347 C32.164305,25.5353694 32.7953455,25.6057896 33.9428325,25.5353694 L33.6824471,27.9331001 C30.2603725,28.2858273 29.3887148,27.2451727 29.6568222,24.7773347 L29.995354,21.6559969 L28.6143542,21.6559969 L28.8895658,19.1167997 L30.2705655,19.1167997 L30.4524954,17.44205 L33.1280086,16.6486486 L32.8605191,19.1167997 L34.6384288,19.1167997 L34.3629084,21.6559969 L32.5849987,21.6559969 Z" id="Fill-25"></path>
                        <path d="M41.4155127,18.9189189 L41.0971673,21.9460513 C40.0689691,21.7677802 38.5349856,22.2131419 38.3493597,23.97594 L37.9261085,28 L35.3914381,28 L36.3277304,19.0965579 L38.862703,19.0965579 L38.6961234,20.681717 C39.1595836,19.4885015 40.3510358,18.9189189 41.4155127,18.9189189" id="Fill-27"></path>
                        <path d="M48.1395791,23.4591542 C48.2833741,22.1696199 47.510399,21.3612187 46.3202332,21.3612187 C45.1297589,21.3612187 44.1781201,22.1696199 44.0343251,23.4591542 C43.8911473,24.7499096 44.6638138,25.5577002 45.8542881,25.5577002 C47.0441453,25.5577002 47.9964013,24.7499096 48.1395791,23.4591542 L48.1395791,23.4591542 Z M51.2046339,19.1594854 L50.2489836,27.7591282 L47.6619083,27.7591282 L47.751703,26.9510323 C47.1101799,27.6040422 46.2208728,28 45.0652672,28 C42.8058963,28 41.1630541,26.0220425 41.4475584,23.4591542 C41.7320626,20.8968764 43.8146212,18.9189189 46.0743006,18.9189189 C47.2299062,18.9189189 48.0306529,19.3142662 48.5274553,19.968192 L48.6175586,19.1594854 L51.2046339,19.1594854 Z" id="Fill-29"></path>
                        <polygon id="Fill-31" points="53.2762703 15.1351351 55.7226898 15.1351351 54.4040627 28 51.9576432 28"></polygon>
                    </g>
                    <path d="M17.7468784,10.6457707 L15.7440721,9.03157166 L35.7283252,9.15637271 L36.6577759,10.6770499 L37.257127,11.6574491 L37.6319496,12.270712 L20.1999587,12.1794019 L19.645635,12.1762424 L17.7468784,10.6457707 Z M27.2008059,16.9379557 L23.9737412,14.1578936 L38.8336943,14.2359338 L40.5362166,17.0223148 L27.2008059,16.9379557 Z M43.3805485,18.0197755 L42.7793719,17.0365327 L41.0750242,14.247624 L40.4744561,13.2653291 L40.0932444,12.6416397 L40.0768155,12.6150998 L39.873888,12.2827182 L39.493589,11.6612405 L38.8945421,10.6805254 L37.0961845,7.73869588 L36.7688232,7.20378907 L11.3192178,7.04486519 L11.0283652,7.04296948 L9.17798261,5.62687241 L5.78267363,3.02879873 L53.6081562,3.29893773 C54.1350984,4.90397413 54.420779,6.62401707 54.4127368,8.41483326 C54.3842703,14.5335606 50.9722281,19.8102757 46.0286461,22.351794 L43.9817251,19.0030182 L43.3805485,18.0197755 Z M55.3937358,2.66703364 L54.9608035,1.3476179 L53.6185003,1.34003505 L5.79301776,1.0695801 L0,1.03703704 L4.66337778,4.6057154 L9.90937354,8.62020209 L10.4034579,8.99808074 L11.0171083,9.00187216 L12.4357755,9.01071882 L12.7543139,9.23409692 L14.0318141,10.1310848 L18.4889177,13.7237755 L18.9954759,14.1316696 L19.6362036,14.1351451 L21.0010204,14.142412 L25.9966274,18.4456788 L26.5153551,18.892751 L27.1895491,18.8968583 L41.7385698,18.9888004 L44.4362584,23.4017026 L45.345325,24.8888889 L46.865608,24.1072235 C52.6531495,21.1319031 56.2678149,15.1224952 56.2990338,8.42462778 C56.3076702,6.46224962 56.0034311,4.52514762 55.3937358,2.66703364 L55.3937358,2.66703364 Z" id="Fill-33"></path>
                </g>
            </g>
        </g>
    </g>
</svg>