<?xml version="1.0" encoding="UTF-8"?>
<svg width="190px" height="42px" viewBox="0 0 190 42" version="1.1" xmlns="http://www.w3.org/2000/svg" xmlns:xlink="http://www.w3.org/1999/xlink">
    <!-- Generator: sketchtool 63.1 (101010) - https://sketch.com -->
    <title>7F2F77DA-5E7E-4AEB-B8DF-88BBEAE19294</title>
    <desc>Created with sketchtool.</desc>
    <g id="Landing" stroke="none" stroke-width="1" fill="none" fill-rule="evenodd">
        <g id="D--Landing" transform="translate(-85.000000, -20.000000)" fill="#FFFFFF">
            <g id="D-logo" transform="translate(85.000000, 20.000000)">
                <g id="Group-18" transform="translate(94.000000, 0.817919)">
                    <path d="M92.6896552,0.63690004 C91.2139703,0.63690004 90.0131186,1.84228043 90.0131186,3.32455392 C90.0131186,4.80636822 91.2139703,6.01174861 92.6896552,6.01174861 C94.1657973,6.01174861 95.3661917,4.80636822 95.3661917,3.32455392 C95.3661917,1.84228043 94.1657973,0.63690004 92.6896552,0.63690004 M92.6896552,6.64864865 C90.8645984,6.64864865 89.3793103,5.1576505 89.3793103,3.32455392 C89.3793103,1.49099815 90.8645984,0 92.6896552,0 C94.5151693,0 96,1.49099815 96,3.32455392 C96,5.1576505 94.5151693,6.64864865 92.6896552,6.64864865" id="Fill-1"></path>
                    <path d="M92.7318807,3.80099653 C92.9530618,3.80099653 93.118836,3.74786099 93.2278627,3.64210579 C93.3368894,3.5363506 93.3922964,3.37591223 93.3922964,3.16079068 C93.3922964,2.94876441 93.337783,2.79142131 93.2300968,2.68876139 C93.1219638,2.58558559 92.9557428,2.53399768 92.7318807,2.53399768 L91.9137338,2.53399768 L91.9137338,3.80099653 L92.7318807,3.80099653 Z M93.7931034,5.38113393 C93.7931034,5.42807892 93.7774644,5.46676984 93.7466331,5.49617495 C93.7153549,5.52558005 93.6796085,5.54054054 93.6389469,5.54054054 C93.5768374,5.54054054 93.5281329,5.5095878 93.4932801,5.44665056 L92.9503809,4.45616287 C92.8802284,4.32770899 92.807395,4.24000956 92.7318807,4.19151694 C92.6563663,4.14354019 92.5540421,4.11929387 92.4244612,4.11929387 L91.9137338,4.11929387 L91.9137338,5.33934773 C91.9137338,5.39867381 91.8989883,5.44613468 91.8690507,5.48224621 C91.8395599,5.51784186 91.8002388,5.53589763 91.7519811,5.53589763 C91.7001487,5.53589763 91.6603808,5.51784186 91.6304431,5.48224621 C91.6009523,5.44613468 91.5862069,5.39867381 91.5862069,5.33934773 L91.5862069,2.4034803 C91.5862069,2.34724948 91.6013991,2.30236801 91.6322305,2.26728824 C91.6635086,2.23324022 91.704617,2.21621622 91.7555557,2.21621622 L92.760031,2.21621622 C93.0705783,2.21621622 93.3073985,2.29566158 93.4709386,2.4550682 C93.6344786,2.61344305 93.7158017,2.84713624 93.7158017,3.15614777 C93.7158017,3.41769842 93.6505645,3.62817706 93.5196431,3.78758367 C93.3887217,3.94595853 93.2019465,4.04294378 92.9588706,4.0769918 C93.0258952,4.10226987 93.087111,4.14250843 93.1407307,4.19873924 C93.1947972,4.25497005 93.2488637,4.3323519 93.3029302,4.43243243 L93.7649531,5.27383109 C93.78372,5.30839499 93.7931034,5.34399064 93.7931034,5.38113393 L93.7931034,5.38113393 Z" id="Fill-3"></path>
                    <path d="M93.2696854,2.70010147 C93.3836934,2.82398355 93.441285,3.00188939 93.441285,3.23055894 C93.441285,3.36980985 93.4201289,3.49136332 93.3778167,3.59382218 C93.4287481,3.49462337 93.453822,3.3730699 93.453822,3.22636744 C93.453822,2.99583501 93.3993646,2.82864077 93.2873155,2.71640175 C93.2814388,2.71081308 93.2759539,2.70522442 93.2696854,2.70010147 L93.2696854,2.70010147 Z M92.1452769,3.6469145 L92.7266784,3.6469145 C92.8869164,3.6469145 93.0040586,3.61151962 93.074579,3.5416613 C93.1388309,3.47739165 93.1697815,3.37586424 93.1697815,3.23055894 C93.1697815,3.0885137 93.1396145,2.98978062 93.0773214,2.92877102 C93.0079764,2.8607756 92.8900506,2.82631216 92.7266784,2.82631216 L92.1452769,2.82631216 L92.1452769,3.6469145 Z M92.69181,3.97012563 C92.7282455,3.98316585 92.7619386,3.99946612 92.7924974,4.01949217 L92.793281,4.02042362 C92.7975906,4.00086329 92.8042508,3.98316585 92.8132618,3.9673313 C92.7854454,3.96919419 92.7564537,3.97012563 92.7266784,3.97012563 L92.69181,3.97012563 Z M91.8710309,2.53896163 L91.8577104,5.19730336 L91.8749487,5.21267218 L91.8737734,4.0958706 C91.8737734,4.03299811 91.9035487,3.97897435 91.9470362,3.95196247 C91.9035487,3.92541631 91.8737734,3.87139255 91.8737734,3.80852006 L91.8737734,2.66517232 C91.8737734,2.61394289 91.8933624,2.56923357 91.9239212,2.53896163 L91.8710309,2.53896163 Z M93.5313944,5.23502685 L93.6164107,5.33888287 L93.5443232,5.23502685 L93.6571558,5.23502685 L93.5443232,5.23502685 L93.5298273,5.21406935 C93.5274766,5.21639796 93.525126,5.22105518 93.5231671,5.2257124 L93.5313944,5.23502685 L93.5215999,5.23502685 L93.5313944,5.23502685 Z M93.5223835,5.54054054 C93.421696,5.54054054 93.3358962,5.48418817 93.2802635,5.38219503 L92.803859,4.48567999 C92.7427414,4.3720438 92.6922017,4.32314298 92.6608593,4.30218549 C92.6161964,4.27284499 92.5452843,4.25747616 92.4571338,4.25747616 L92.1452769,4.25747616 L92.1452769,5.19730336 C92.1452769,5.31699393 92.1033565,5.39383808 92.0688798,5.43761596 C92.0167731,5.50235133 91.947428,5.53634904 91.8675049,5.53634904 C91.764075,5.53634904 91.6990395,5.482791 91.6629958,5.43761596 C91.6281274,5.3943038 91.5862069,5.31745966 91.5862069,5.19730336 L91.5862069,2.5468789 C91.5862069,2.45233732 91.6144151,2.36943879 91.6684807,2.30749775 C91.7217628,2.24788532 91.7914996,2.21621622 91.8710309,2.21621622 L92.7517523,2.21621622 C93.0553818,2.21621622 93.2943676,2.30190908 93.4624412,2.46956904 C93.6367832,2.64468054 93.7253255,2.89943053 93.7253255,3.22636744 C93.7253255,3.50440353 93.6548051,3.73353881 93.516115,3.90725315 C93.4408933,4.00086329 93.3496085,4.07444738 93.241869,4.1275397 C93.2759539,4.17457763 93.3092552,4.22906712 93.3429483,4.29287104 L93.7472652,5.05199806 C93.777824,5.10928188 93.7931034,5.17122292 93.7931034,5.23502685 C93.7931034,5.32537693 93.7609775,5.40641258 93.7026023,5.46323067 C93.6512791,5.51399438 93.5885943,5.54054054 93.5223835,5.54054054 L93.5223835,5.54054054 Z" id="Fill-5"></path>
                    <path d="M15.4009782,11.062311 L14.5279856,18.8378378 L10.6778175,18.8378378 L11.488355,11.6193436 C11.6642394,10.049402 10.7457833,9.31433482 9.51367435,9.31433482 C8.10154804,9.31433482 7.03476124,10.1249318 6.83316011,11.9228116 L6.05706468,18.8378378 L2.20689655,18.8378378 L4.197191,1.10810811 L8.0468999,1.10810811 L7.34519941,7.36404657 C8.14379702,6.42711694 9.49530523,5.8192816 11.1889383,5.8192816 C13.7821992,5.8192816 15.7848929,7.64323721 15.4009782,11.062311" id="Fill-7"></path>
                    <path d="M26.4055496,12.1891892 C26.6149067,10.3004955 25.4831126,9.11631816 23.7395258,9.11631816 C21.9945825,9.11631816 20.5991705,10.3004955 20.3893613,12.1891892 C20.1790999,14.0783299 21.3117983,15.2620602 23.0567416,15.2620602 C24.8003284,15.2620602 26.1948361,14.0783299 26.4055496,12.1891892 L26.4055496,12.1891892 Z M30.8965517,5.89279867 L29.4961658,18.4851327 L25.7051306,18.4851327 L25.8367135,17.3018494 C24.8966417,18.2584894 23.5930211,18.8378378 21.8996258,18.8378378 C18.5888004,18.8378378 16.1814207,15.9415429 16.5987782,12.1891892 C17.0156836,8.43638845 20.0665083,5.54054054 23.3777858,5.54054054 C25.0711812,5.54054054 26.2459319,6.11988893 26.9739336,7.07652903 L27.1055165,5.89279867 L30.8965517,5.89279867 Z" id="Fill-9"></path>
                    <path d="M45.1940797,10.8958288 L44.3215162,18.8378378 L40.4712146,18.8378378 L41.281321,11.464788 C41.4572114,9.86123227 40.5387234,9.11042655 39.3065718,9.11042655 C37.8948558,9.11042655 36.828032,9.93837927 36.6264239,11.7747536 L35.8498423,18.8378378 L32,18.8378378 L33.4218194,5.90239675 L37.272121,5.90239675 L37.138481,7.11838056 C37.9371063,6.16139028 39.2886613,5.54054054 40.9823531,5.54054054 C43.5752447,5.54054054 45.5780077,7.40354897 45.1940797,10.8958288" id="Fill-11"></path>
                    <path d="M57.4243917,12.1136204 C57.6177817,10.3278518 56.4841631,9.11161845 54.6870401,9.11161845 C52.8890113,9.11161845 51.4913496,10.3278518 51.2979596,12.1136204 C51.1045696,13.8989297 52.2381883,15.1142444 54.0362171,15.1142444 C55.8328871,15.1142444 57.2305488,13.8989297 57.4243917,12.1136204 L57.4243917,12.1136204 Z M61.7931034,5.90293031 L60.4615658,18.1938685 C59.9900927,22.5411679 56.4746521,24.3783784 53.1082168,24.3783784 C50.4750331,24.3783784 48.3821639,23.3692905 47.4482759,21.2473124 L50.8957809,19.3324797 C51.2789377,20.2377652 51.9342897,20.9620855 53.6045996,20.9620855 C55.3768128,20.9620855 56.5656858,20.0315383 56.7649635,18.1938685 L56.8940412,17.0038154 C55.9443015,18.0648045 54.6612246,18.6857817 53.0162773,18.6857817 C49.4215785,18.6857817 47.1135798,15.6837797 47.5008127,12.1136204 C47.8875927,8.54254249 50.8464144,5.54054054 54.4406603,5.54054054 C56.0860605,5.54054054 57.234172,6.16197699 57.9542894,7.22250675 L58.0969541,5.90293031 L61.7931034,5.90293031 Z" id="Fill-13"></path>
                    <path d="M72.7506878,12.1891892 C72.9605036,10.3004955 71.8282218,9.11631816 70.08458,9.11631816 C68.3400339,9.11631816 66.9445778,10.3004955 66.734762,12.1891892 C66.5240418,14.0783299 67.6563237,15.2620602 69.4017742,15.2620602 C71.145416,15.2620602 72.5399676,14.0783299 72.7506878,12.1891892 L72.7506878,12.1891892 Z M77.2413793,5.89279867 L75.8418536,18.4851327 L72.0502467,18.4851327 L72.1822859,17.3018494 C71.2417323,18.2584894 69.9380707,18.8378378 68.2446219,18.8378378 C64.9336922,18.8378378 62.5262366,15.9415429 62.9436073,12.1891892 C63.3600736,8.43638845 66.4118989,5.54054054 69.7232808,5.54054054 C71.4167295,5.54054054 72.591065,6.11988893 73.3181853,7.07652903 L73.4502246,5.89279867 L77.2413793,5.89279867 Z" id="Fill-15"></path>
                    <path d="M87.1724138,5.54054054 L86.7059153,9.97297297 C85.1983235,9.71194218 82.9508907,10.3645192 82.6788774,12.9452066 L82.0590945,18.8378378 L78.3448276,18.8378378 L79.7159698,5.80064569 L83.4306797,5.80064569 L83.1865765,8.12169076 C83.8657239,6.375006 85.6125457,5.54054054 87.1724138,5.54054054" id="Fill-17"></path>
                    <path d="M0.0460884863,34.3509043 C0.476648582,30.5989976 3.75552931,27.7027027 7.7187347,27.7027027 C10.2479837,27.7027027 12.3424743,28.9870144 13.2413793,30.9262222 L9.60657512,32.8408435 C9.26464603,31.9593041 8.38626612,31.4295758 7.23919431,31.4295758 C5.54400971,31.4295758 4.15670123,32.6137532 3.95751471,34.3509043 C3.75786171,36.0889495 4.87461238,37.2726799 6.5693305,37.2726799 C7.71640231,37.2726799 8.74218958,36.7442927 9.25998124,35.8627533 L12.4595605,37.7509999 C11.1128357,39.7156883 8.74918676,41 6.19381492,41 C2.23107601,41 -0.383538652,38.1037051 0.0460884863,34.3509043" id="Fill-19"></path>
                    <path d="M22.814571,33.041112 C22.5725896,31.5811183 21.4933977,31.0527311 20.3554066,31.0527311 C18.913921,31.0527311 17.874984,31.7581415 17.378809,33.041112 L22.814571,33.041112 Z M19.9786393,37.624938 C21.0148625,37.624938 21.9452471,37.2226127 22.5115289,36.6678509 L25.3519837,38.405896 C23.9231625,40.1184606 21.9551978,41 19.5530234,41 C15.2294713,41 12.8720747,38.103258 13.2886446,34.3509043 C13.7061191,30.5989976 16.7582511,27.7027027 20.7534321,27.7027027 C24.4446664,27.7027027 26.8576961,30.5480364 26.434794,34.3509043 C26.376447,34.8801856 26.2701561,35.3830922 26.115469,35.8627533 L17.1408983,35.8627533 C17.4751493,37.1712045 18.5882638,37.624938 19.9786393,37.624938 L19.9786393,37.624938 Z" id="Fill-21"></path>
                    <path d="M40.7802883,33.0575317 L39.907755,41 L36.0571277,41 L36.867206,33.6264909 C37.0435496,32.0229352 36.1250934,31.2730479 34.8929845,31.2730479 C33.4808583,31.2730479 32.4140715,32.1010006 32.2124704,33.937375 L31.4363749,41 L27.5862069,41 L29.0075177,28.0645589 L32.8576858,28.0645589 L32.7240504,29.2810019 C33.522648,28.3235524 34.8746154,27.7027027 36.5687077,27.7027027 C39.1615094,27.7027027 41.1642029,29.5652519 40.7802883,33.0575317" id="Fill-23"></path>
                    <path d="M47.7495558,31.7105668 L47.2530238,36.2810972 C47.1330777,37.3910766 48.0577948,37.4941919 49.7393045,37.3910766 L49.3577398,40.9020395 C44.3430843,41.4185328 43.0657706,39.8947172 43.4586509,36.2810972 L43.9547302,31.7105668 L41.9310345,31.7105668 L42.3343252,27.9924566 L44.358021,27.9924566 L44.6246183,25.5401446 L48.5452742,24.3783784 L48.1532991,27.9924566 L50.7586207,27.9924566 L50.3548773,31.7105668 L47.7495558,31.7105668 Z" id="Fill-25"></path>
                    <path d="M60.6896552,27.7027027 L60.2231567,32.1352894 C58.7164509,31.8742495 56.4685751,32.5263864 56.1965618,35.1076265 L55.5763359,41 L51.862069,41 L53.2340972,27.9628169 L56.9488071,27.9628169 L56.704704,30.2839428 C57.3838513,28.5367344 59.1297871,27.7027027 60.6896552,27.7027027" id="Fill-27"></path>
                    <path d="M70.5429987,34.3509043 C70.7537136,32.4626577 69.6210077,31.2789274 67.8769572,31.2789274 C66.1324544,31.2789274 64.7379375,32.4626577 64.5272225,34.3509043 C64.317412,36.240939 65.4496657,37.4237754 67.1941684,37.4237754 C68.9377668,37.4237754 70.3331881,36.240939 70.5429987,34.3509043 L70.5429987,34.3509043 Z M75.0344828,28.0549608 L73.6340875,40.6472948 L69.8430271,40.6472948 L69.9746109,39.4640115 C69.0345329,40.4202046 67.7313559,41 66.0379492,41 C62.7271019,41 60.3197062,38.1037051 60.7366144,34.3509043 C61.1535225,30.5989976 64.2052718,27.7027027 67.5165713,27.7027027 C69.2099779,27.7027027 70.3833798,28.2816041 71.1113864,29.2391382 L71.2434224,28.0549608 L75.0344828,28.0549608 Z" id="Fill-29"></path>
                    <polygon id="Fill-31" points="78.0702269 22.1621622 81.6551724 22.1621622 79.7228765 41 76.137931 41"></polygon>
                </g>
                <path d="M26.1636148,17.5148406 L23.210946,15.2138551 L52.6730456,15.3917547 L54.0433028,17.5594281 L54.9269057,18.9569537 L55.4794939,19.831139 L29.780107,19.7009795 L28.9628865,19.6964757 L26.1636148,17.5148406 Z M40.1012162,26.4841354 L35.3436652,22.5212519 L57.2511848,22.6324955 L59.7611552,26.6043865 L40.1012162,26.4841354 Z M63.9544562,28.0262325 L63.0681621,26.6246536 L60.5555007,22.6491595 L59.6701037,21.2489316 L59.1080964,20.3598838 L59.0838758,20.322052 L58.7847067,19.8482534 L58.224045,18.9623582 L57.3408907,17.5643823 L54.6896337,13.3709048 L54.2070161,12.6084134 L16.6875349,12.3818729 L16.2587408,12.3791706 L13.5307853,10.3605726 L8.52519759,6.65710733 L79.0326677,7.04218125 C79.8095206,9.3301058 80.2306897,11.7819682 80.2188334,14.3347156 C80.1768661,23.0567523 75.1466093,30.5785295 67.8584557,34.2013769 L64.8407502,29.4278115 L63.9544562,28.0262325 Z M81.6650866,6.14142355 L81.0268293,4.26064148 L79.0479177,4.24983239 L8.54044759,3.8643081 L0,3.81791908 L6.87505806,8.90494816 L14.6090499,14.6274618 L15.3374615,15.1661149 L16.2421453,15.1715195 L18.3336377,15.1841301 L18.8032479,15.5025479 L20.6866227,16.7811735 L27.2575779,21.9024313 L28.0043793,22.4838704 L28.9489821,22.4888246 L30.9610848,22.4991833 L38.3259369,28.6333432 L39.0906795,29.2706293 L40.0846206,29.2764842 L61.5337432,29.4075445 L65.5108531,35.6979858 L66.8510588,37.8179191 L69.09236,36.7036818 C77.6247341,32.4624642 82.9537114,23.8962585 82.9997364,14.3486773 C83.0124688,11.5513743 82.5639394,8.79010156 81.6650866,6.14142355 L81.6650866,6.14142355 Z" id="Fill-33"></path>
            </g>
        </g>
    </g>
</svg>