<?xml version="1.0" encoding="UTF-8"?>
<svg width="21px" height="20px" viewBox="0 0 21 20" version="1.1" xmlns="http://www.w3.org/2000/svg" xmlns:xlink="http://www.w3.org/1999/xlink">
    <!-- Generator: Sketch 62 (91390) - https://sketch.com -->
    <title>icon_outlook@1.5x</title>
    <desc>Created with Sketch.</desc>
    <g id="Login-&amp;-Registro" stroke="none" stroke-width="1" fill="none" fill-rule="evenodd">
        <g id="D--Register-3.6" transform="translate(-811.000000, -496.000000)" fill="#4A90E2" fill-rule="nonzero">
            <g id="icon_outlook" transform="translate(811.000000, 496.040582)">
                <path d="M20.34375,3.93838431 L11.8125,3.93838431 L11.8125,0.657134305 C11.8125,0.461571805 11.725875,0.276509305 11.5749375,0.151821805 C11.4253125,0.0271343052 11.2245,-0.0266781948 11.0355,0.0126968052 L0.5355,1.98144681 C0.2244375,2.03919681 1.0658141e-14,2.30957181 1.0658141e-14,2.62588431 L1.0658141e-14,17.0633843 C1.0658141e-14,17.3783843 0.2244375,17.6500718 0.5355,17.7078218 L11.0355,19.6765718 C11.074875,19.6844468 11.1155625,19.6883843 11.15625,19.6883843 C11.3085,19.6883843 11.4568125,19.6358843 11.5749375,19.5374468 C11.725875,19.4127593 11.8125,19.2263843 11.8125,19.0321343 L11.8125,15.7508843 L20.34375,15.7508843 C20.706,15.7508843 21,15.4568843 21,15.0946343 L21,4.59463431 C21,4.23238431 20.706,3.93838431 20.34375,3.93838431 Z M5.90625,14.4383843 C4.097625,14.4383843 2.625,12.6717593 2.625,10.5008843 C2.625,8.33000931 4.097625,6.56338431 5.90625,6.56338431 C7.714875,6.56338431 9.1875,8.33000931 9.1875,10.5008843 C9.1875,12.6717593 7.714875,14.4383843 5.90625,14.4383843 Z M11.8125,5.25088431 L18.4314375,5.25088431 L14.3994375,8.38644681 L11.8125,6.74188431 L11.8125,5.25088431 Z M19.6875,14.4383843 L11.8125,14.4383843 L11.8125,8.29719681 L14.0844375,9.74225931 C14.1920625,9.81050931 14.3154375,9.84463431 14.4375,9.84463431 C14.57925,9.84463431 14.7223125,9.79869681 14.8404375,9.70682181 L19.6875,5.93600931 L19.6875,14.4383843 Z" id="Shape"></path>
                <ellipse id="Oval" cx="5.90625" cy="10.5008433" rx="1.96875" ry="2.625"></ellipse>
            </g>
        </g>
    </g>
</svg>