<?xml version="1.0" encoding="UTF-8"?>
<svg width="34px" height="20px" viewBox="0 0 34 20" version="1.1" xmlns="http://www.w3.org/2000/svg" xmlns:xlink="http://www.w3.org/1999/xlink">
    <!-- Generator: Sketch 62 (91390) - https://sketch.com -->
    <title>icon_yahoo@1.5x</title>
    <desc>Created with Sketch.</desc>
    <g id="Login-&amp;-Registro" stroke="none" stroke-width="1" fill="none" fill-rule="evenodd">
        <g id="D--Register-3.6" transform="translate(-886.000000, -496.000000)" fill="#85109D" fill-rule="nonzero">
            <g id="icon_yahoo" transform="translate(886.000000, 496.000000)">
                <path d="M27.3870598,4.94412412 C26.5548397,5.16398524 18.9428086,10.9512074 18.4410102,12.3711987 C18.3304217,12.8616045 18.452156,17.6177966 18.5627446,18.3310084 C19.0645429,18.4402802 22.6855065,18.3451905 23.3499862,18.4539973 L23.2703055,19.9242847 C22.6195012,19.8747636 18.0182601,19.8863883 15.3929884,19.8863883 C14.0585748,19.8863883 9.76965337,20.0309991 8.45239319,19.9934127 L8.7013952,18.5940358 C9.42429153,18.5415698 12.4151615,18.7246195 13.0707087,18.0395394 C13.3967037,17.6988592 13.2942571,13.1788028 13.1835896,12.4145975 C12.9066835,11.5971512 6.23580096,3.40261632 4.49286589,2.06004526 L0,2.06004526 L0,0 L15.1522865,0 L15.1522865,0.142130878 C15.1655666,0.142130878 15.190862,0.144455811 15.2037469,0.147013237 L15.1522865,0.495133141 L15.1522865,2.05996776 L10.583139,2.05996776 C12.6195803,4.97954059 15.5394648,8.50437087 16.7847911,10.1981618 L22.887791,4.7758765 L19.2601083,4.7758765 L18.7491404,2.71807868 L32.0374689,2.71807868 L31.93937,2.86478192 C31.9496463,2.86478192 31.9717798,2.86710685 31.9862456,2.86710685 L31.0369551,4.21688521 C31.0284969,4.21688521 31.0141101,4.21921014 31.0066796,4.22145758 L30.6236908,4.7758765 L28.1725623,4.7758765 C27.8552626,4.84446201 27.5759851,4.90560774 27.3870598,4.94412412 Z M31.7230149,17.8457175 L30.5497806,17.7889891 L29.2408205,17.6323662 L29.2519663,19.8322174 L30.2842575,19.9194023 L31.3968618,20 L31.7230149,17.8457175 Z M34,7.33035742 C33.6042054,7.31664032 30.0045848,6.982625 29.5367772,6.89179764 L29.592111,16.1851731 L31.6292637,16.3465235 L34,7.33035742 Z" id="Yahoo_x21_"></path>
            </g>
        </g>
    </g>
</svg>