<?xml version="1.0" encoding="UTF-8"?>
<svg width="25px" height="25px" viewBox="0 0 25 25" version="1.1" xmlns="http://www.w3.org/2000/svg" xmlns:xlink="http://www.w3.org/1999/xlink">
    <!-- Generator: sketchtool 63.1 (101010) - https://sketch.com -->
    <title>BE2E62ED-D063-42E6-9E9F-C68874B797E0</title>
    <desc>Created with sketchtool.</desc>
    <g id="Landing" stroke="none" stroke-width="1" fill="none" fill-rule="evenodd">
        <g id="D--Landing" transform="translate(-1080.000000, -1841.000000)" fill="#1D79BE" fill-rule="nonzero">
            <g id="Pie-de-Pagina" transform="translate(0.000000, 1807.000000)">
                <g id="facebook-app-logo" transform="translate(1080.000000, 34.000000)">
                    <path d="M21,0 C23.209139,-4.05812251e-16 25,1.790861 25,4 L25,4 L25,21 C25,23.209139 23.209139,25 21,25 L21,25 L17.172,25 L17.1729508,15.25 L20.407377,15.25 L20.8938525,11.4934426 L17.1733607,11.4934426 L17.1733607,9.0954918 C17.1733607,8.00819672 17.4741803,7.26680328 19.0336066,7.26680328 L19.0336066,7.26680328 L21.0229508,7.26598361 L21.0229508,3.90614754 C20.6790984,3.86147541 19.5,3.75860656 18.125,3.75860656 C15.2569672,3.75860656 13.2942623,5.50983607 13.2942623,8.72418033 L13.2942623,8.72418033 L13.2942623,11.4946721 L10.0508197,11.4946721 L10.0508197,15.2516393 L13.2942623,15.2516393 L13.294,25 L4,25 C1.85780461,25 0.108921124,23.3160315 0.00489530723,21.1996403 L0,21 L0,4 C-2.705415e-16,1.790861 1.790861,4.05812251e-16 4,0 L4,0 Z" id="Combined-Shape"></path>
                </g>
            </g>
        </g>
    </g>
</svg>