<?xml version="1.0" encoding="UTF-8"?>
<svg width="25px" height="25px" viewBox="0 0 25 25" version="1.1" xmlns="http://www.w3.org/2000/svg" xmlns:xlink="http://www.w3.org/1999/xlink">
    <!-- Generator: sketchtool 63.1 (101010) - https://sketch.com -->
    <title>227F5C06-DE45-4D7C-98F5-159E20B2B701</title>
    <desc>Created with sketchtool.</desc>
    <g id="Landing" stroke="none" stroke-width="1" fill="none" fill-rule="evenodd">
        <g id="D--Landing" transform="translate(-1170.000000, -1841.000000)" fill="#1D79BE" fill-rule="nonzero">
            <g id="Pie-de-Pagina" transform="translate(0.000000, 1807.000000)">
                <path d="M1191,34 C1193.20914,34 1195,35.790861 1195,38 L1195,38 L1195,55 C1195,57.209139 1193.20914,59 1191,59 L1191,59 L1174,59 C1171.79086,59 1170,57.209139 1170,55 L1170,55 L1170,38 C1170,35.790861 1171.79086,34 1174,34 L1174,34 Z M1186.28927,37.125 L1178.71073,37.125 C1175.63074,37.125 1173.125,39.6307437 1173.125,42.7107261 L1173.125,50.2892739 C1173.125,53.3692563 1175.63074,55.875 1178.71073,55.875 L1186.28927,55.875 C1189.36926,55.875 1191.875,53.3692563 1191.875,50.2892739 L1191.875,42.7107261 C1191.875,39.6307437 1189.36922,37.125 1186.28927,37.125 Z M1186.28927,39.0112493 C1188.33242,39.0112493 1189.98875,40.6675446 1189.98875,42.7107261 L1189.98875,50.2892739 C1189.98875,52.3324214 1188.33242,53.9887507 1186.28927,53.9887507 L1178.71073,53.9887507 C1176.66758,53.9887507 1175.01125,52.3324214 1175.01125,50.2892739 L1175.01125,42.7107261 C1175.01125,40.6675446 1176.66758,39.0112493 1178.71073,39.0112493 L1186.28927,39.0112493 Z M1182.5,41.2916667 C1179.62812,41.2916667 1177.29167,43.6281286 1177.29167,46.4999817 C1177.29167,49.3718349 1179.62812,51.7083333 1182.5,51.7083333 C1185.37188,51.7083333 1187.70833,49.3718714 1187.70833,46.4999817 C1187.70833,43.628092 1185.37188,41.2916667 1182.5,41.2916667 Z M1182.5,43.3175286 C1184.25765,43.3175286 1185.68248,44.7423636 1185.68248,46.5000183 C1185.68248,48.2576364 1184.25761,49.682508 1182.5,49.682508 C1180.74235,49.682508 1179.31752,48.2576729 1179.31752,46.5000183 C1179.31752,44.7423636 1180.74239,43.3175286 1182.5,43.3175286 Z M1187.70833,40.25 C1187.13304,40.25 1186.66667,40.7163701 1186.66667,41.2916667 C1186.66667,41.8669633 1187.13304,42.3333333 1187.70833,42.3333333 C1188.28363,42.3333333 1188.75,41.8669633 1188.75,41.2916667 C1188.75,40.7163701 1188.28363,40.25 1187.70833,40.25 Z" id="Combined-Shape"></path>
            </g>
        </g>
    </g>
</svg>