<?xml version="1.0" encoding="UTF-8"?>
<svg width="25px" height="25px" viewBox="0 0 25 25" version="1.1" xmlns="http://www.w3.org/2000/svg" xmlns:xlink="http://www.w3.org/1999/xlink">
    <!-- Generator: sketchtool 63.1 (101010) - https://sketch.com -->
    <title>80F122D5-503F-4B95-B9AC-872F950F024F</title>
    <desc>Created with sketchtool.</desc>
    <g id="Landing" stroke="none" stroke-width="1" fill="none" fill-rule="evenodd">
        <g id="D--Landing" transform="translate(-1035.000000, -1841.000000)" fill-rule="nonzero">
            <g id="Pie-de-Pagina" transform="translate(0.000000, 1807.000000)">
                <g id="linkedin" transform="translate(1035.000000, 34.000000)">
                    <path d="M13.48839,11.212357 L13.48839,11.0824742 C13.4618275,11.1260289 13.4251087,11.1695836 13.4020619,11.212357 L13.48839,11.212357 Z" id="Shape" fill="#000000"></path>
                    <path d="M0,4 L0,21 C2.705415e-16,23.209139 1.790861,25 4,25 L21,25 C23.209139,25 25,23.209139 25,21 L25,4 C25,1.790861 23.209139,-4.05812251e-16 21,0 L4,0 C1.790861,4.05812251e-16 -2.705415e-16,1.790861 0,4 Z M7.77593407,20.7693407 L4.06681319,20.7693407 L4.06681319,9.61021978 L7.77593407,9.61021978 L7.77593407,20.7693407 Z M5.92137363,8.08714286 L5.89686813,8.08714286 C4.65263736,8.08714286 3.84615385,7.22994505 3.84615385,6.15851648 C3.84615385,5.06357143 4.67620879,4.23065934 5.94565934,4.23065934 C7.21538462,4.23065934 7.99565934,5.06357143 8.01994505,6.15851648 C8.01994505,7.22994505 7.21538462,8.08714286 5.92137363,8.08714286 Z M21.1538462,20.7693956 L17.4437363,20.7693956 L17.4437363,14.7991758 C17.4437363,13.2996703 16.9076923,12.2760989 15.5648901,12.2760989 C14.5393956,12.2760989 13.93,12.9652747 13.6615385,13.6328571 C13.563956,13.8713187 13.5384615,14.2028022 13.5384615,14.5371978 L13.5384615,20.7693956 L9.82763736,20.7693956 C9.82763736,20.7693956 9.87736264,10.6571429 9.82763736,9.61027473 L13.5384615,9.61027473 L13.5384615,11.1915385 C14.0314835,10.4329121 14.9113187,9.3482967 16.8821978,9.3482967 C19.3237912,9.3482967 21.1538462,10.9428022 21.1538462,14.3701648 L21.1538462,20.7693956 Z" id="Shape" fill="#1D79BE"></path>
                </g>
            </g>
        </g>
    </g>
</svg>