<?xml version="1.0" encoding="UTF-8"?>
<svg width="25px" height="25px" viewBox="0 0 25 25" version="1.1" xmlns="http://www.w3.org/2000/svg" xmlns:xlink="http://www.w3.org/1999/xlink">
    <!-- Generator: sketchtool 63.1 (101010) - https://sketch.com -->
    <title>D9704B89-8896-4911-B3CC-43A208F86B25</title>
    <desc>Created with sketchtool.</desc>
    <g id="Landing" stroke="none" stroke-width="1" fill="none" fill-rule="evenodd">
        <g id="D--Landing" transform="translate(-1125.000000, -1841.000000)" fill="#1D79BE" fill-rule="nonzero">
            <g id="Pie-de-Pagina" transform="translate(0.000000, 1807.000000)">
                <g id="twitter" transform="translate(1125.000000, 34.000000)">
                    <path d="M0,4 L0,21 C2.705415e-16,23.209139 1.790861,25 4,25 L21,25 C23.209139,25 25,23.209139 25,21 L25,4 C25,1.790861 23.209139,-4.05812251e-16 21,0 L4,0 C1.790861,4.05812251e-16 -2.705415e-16,1.790861 0,4 Z M19.3819231,8.97027473 C19.3886813,9.12263736 19.3921429,9.27582418 19.3921429,9.42961538 C19.3921429,14.1220879 15.8206044,19.5326923 9.28923077,19.5326923 C7.28395604,19.5326923 5.41747253,18.9449451 3.8460989,17.9372527 C4.1239011,17.9702747 4.40648352,17.9870879 4.69318681,17.9870879 C6.35681319,17.9870879 7.88785714,17.4194505 9.10318681,16.4668681 C7.54934066,16.4383516 6.23791209,15.4117033 5.78598901,14.0009341 C6.00291209,14.0425275 6.22538462,14.0648352 6.45417582,14.0648352 C6.77802198,14.0648352 7.09175824,14.0212088 7.38972527,13.9402198 C5.76538462,13.6139011 4.54131868,12.1788462 4.54131868,10.4584615 C4.54131868,10.4434615 4.54131868,10.4285714 4.54164835,10.4137363 C5.02032967,10.6796703 5.5678022,10.8394505 6.14994505,10.8579121 C5.19708791,10.2211538 4.57038462,9.13423077 4.57038462,7.90241758 C4.57038462,7.25159341 4.74549451,6.6417033 5.05120879,6.11714286 C6.80247253,8.26554945 9.41895604,9.67912088 12.3700549,9.82736264 C12.3094505,9.56736264 12.2779121,9.29631868 12.2779121,9.01807692 C12.2779121,7.0571978 13.8679121,5.46736264 15.8287912,5.46736264 C16.8501648,5.46736264 17.773022,5.89851648 18.4207143,6.58857143 C19.2294505,6.42950549 19.9894505,6.13384615 20.6755495,5.72697802 C20.4104945,6.55620879 19.8474725,7.25192308 19.1142857,7.69148352 C19.8326374,7.6056044 20.5169231,7.41467033 21.1537363,7.13225275 C20.6778022,7.84428571 20.0758242,8.46972527 19.3819231,8.97027473 Z" id="Shape"></path>
                </g>
            </g>
        </g>
    </g>
</svg>