<?xml version="1.0" standalone="no"?>
<!DOCTYPE svg PUBLIC "-//W3C//DTD SVG 1.1//EN" "http://www.w3.org/Graphics/SVG/1.1/DTD/svg11.dtd" >
<svg xmlns="http://www.w3.org/2000/svg">
<metadata>Generated by IcoMoon</metadata>
<defs>
<font id="icomoon" horiz-adv-x="1024">
<font-face units-per-em="1024" ascent="960" descent="-64" />
<missing-glyph horiz-adv-x="1024" />
<glyph unicode="&#x20;" horiz-adv-x="512" d="" />
<glyph unicode="&#xe900;" glyph-name="facebook" d="M860.16 960c90.486 0 163.84-73.354 163.84-163.84v0-696.32c0-90.486-73.354-163.84-163.84-163.84v0h-156.795l0.039 399.36h132.482l19.926 153.869h-152.391v98.22c0 44.536 12.322 74.903 76.196 74.903v0l81.484 0.034v137.619c-14.084 1.83-62.38 6.043-118.7 6.043-117.475 0-197.867-71.73-197.867-203.39v0-113.479h-132.851v-153.885h132.851l-0.011-399.293h-380.682c-87.744 0-159.379 68.975-163.639 155.663l-0.201 8.177v696.32c0 90.486 73.354 163.84 163.84 163.84v0z" />
<glyph unicode="&#xe901;" glyph-name="instagram" d="M860.16 960c90.486 0 163.84-73.354 163.84-163.84v0-696.32c0-90.486-73.354-163.84-163.84-163.84v0h-696.32c-90.486 0-163.84 73.354-163.84 163.84v0 696.32c0 90.486 73.354 163.84 163.84 163.84v0zM667.208 832h-310.417c-126.156 0-228.792-102.635-228.792-228.791v-310.417c0-126.156 102.635-228.791 228.792-228.791h310.417c126.156 0 228.792 102.635 228.792 228.791v310.417c0 126.156-102.637 228.791-228.792 228.791zM667.208 754.739c83.687 0 151.531-67.842 151.531-151.531v-310.417c0-83.687-67.843-151.531-151.531-151.531h-310.417c-83.687 0-151.531 67.843-151.531 151.531v310.417c0 83.689 67.843 151.531 151.531 151.531h310.417zM512 661.333c-117.632 0-213.333-95.701-213.333-213.333s95.701-213.334 213.333-213.334c117.632 0 213.333 95.701 213.333 213.334s-95.701 213.333-213.333 213.333zM512 578.354c71.993 0 130.354-58.361 130.354-130.355 0-71.992-58.363-130.355-130.354-130.355-71.993 0-130.354 58.361-130.354 130.355s58.363 130.355 130.354 130.355zM725.333 704c-23.564 0-42.666-19.103-42.666-42.667s19.103-42.667 42.666-42.667c23.564 0 42.667 19.103 42.667 42.667s-19.103 42.667-42.667 42.667z" />
<glyph unicode="&#xe902;" glyph-name="linkedin" d="M552.484 500.742v5.32c-1.088-1.784-2.592-3.568-3.536-5.32h3.536zM0 796.16v-696.32c0-90.486 73.354-163.84 163.84-163.84h696.32c90.486 0 163.84 73.354 163.84 163.84v696.32c0 90.486-73.354 163.84-163.84 163.84h-696.32c-90.486 0-163.84-73.354-163.84-163.84zM318.502 109.288h-151.926v457.078h151.926v-457.078zM242.539 628.751h-1.004c-50.964 0-83.997 35.111-83.997 78.997 0 44.849 33.999 78.965 85.996 78.965 52.008 0 83.968-34.116 84.963-78.965 0-43.886-32.955-78.997-85.957-78.997zM866.462 109.286h-151.966v244.54c0 61.42-21.956 103.345-76.958 103.345-42.004 0-66.965-28.229-77.961-55.573-3.997-9.767-5.041-23.345-5.041-37.042v-255.271h-151.995c0 0 2.037 414.198 0 457.078h151.995v-64.769c20.194 31.073 56.232 75.499 136.959 75.499 100.008 0 174.967-65.311 174.967-205.696v-262.112z" />
<glyph unicode="&#xe903;" glyph-name="twitter" d="M0 796.16v-696.32c0-90.486 73.354-163.84 163.84-163.84h696.32c90.486 0 163.84 73.354 163.84 163.84v696.32c0 90.486-73.354 163.84-163.84 163.84h-696.32c-90.486 0-163.84-73.354-163.84-163.84zM793.884 592.578c0.277-6.241 0.419-12.515 0.419-18.815 0-192.204-146.29-413.822-413.815-413.822-82.136 0-158.587 24.074-222.951 65.349 11.379-1.353 22.953-2.041 34.697-2.041 68.142 0 130.854 23.25 180.634 62.268-63.646 1.168-117.362 43.22-135.872 101.005 8.885-1.704 17.998-2.617 27.369-2.617 13.265 0 26.115 1.787 38.32 5.104-66.533 13.366-116.671 72.146-116.671 142.613 0 0.614 0 1.224 0.014 1.832 19.607-10.893 42.031-17.437 65.876-18.193-39.029 26.082-64.699 70.602-64.699 121.057 0 26.658 7.173 51.639 19.695 73.125 71.732-87.999 178.903-145.899 299.78-151.971-2.482 10.65-3.774 21.752-3.774 33.148 0 80.318 65.126 145.437 145.444 145.437 41.835 0 79.636-17.66 106.165-45.925 33.126 6.515 64.255 18.626 92.358 35.291-10.857-33.965-33.918-62.462-63.949-80.466 29.424 3.518 57.452 11.338 83.536 22.906-19.494-29.165-44.151-54.783-72.573-75.285z" />
<glyph unicode="&#xe904;" glyph-name="add-circle" d="M512 886.857c242.374 0 438.857-196.483 438.857-438.857s-196.483-438.857-438.857-438.857c-242.374 0-438.857 196.483-438.857 438.857s196.483 438.857 438.857 438.857zM527.673 656.386c-13.378 0-24.223-10.845-24.223-24.223v0l-0.010-175.604-178.429-0.173c-12.047-1.399-21.398-11.637-21.398-24.060 0-13.378 10.845-24.223 24.223-24.223v0l175.604 0.035 0.010-175.649 0.163-2.825c1.399-12.047 11.637-21.398 24.060-21.398 13.378 0 24.223 10.845 24.223 24.223v0l-0.035 175.649 178.474 0.128c12.047 1.399 21.398 11.637 21.398 24.060 0 13.378-10.845 24.223-24.223 24.223v0l-175.649 0.010 0.035 175.604-0.163 2.825c-1.399 12.047-11.637 21.398-24.060 21.398z" />
<glyph unicode="&#xe906;" glyph-name="menu" d="M281.6 455.314c0-49.627-42.496-91.429-91.429-91.429-50.213 0-91.429 41.801-91.429 91.429s42.496 91.429 91.429 91.429 90.149-41.801 91.429-91.429zM610.743 455.314c0-49.627-42.496-91.429-91.429-91.429-50.213 0-91.429 41.801-91.429 91.429s42.496 91.429 91.429 91.429 90.149-41.801 91.429-91.429zM939.886 455.314c0-49.627-42.496-91.429-91.429-91.429-50.213 0-91.429 41.801-91.429 91.429s42.496 91.429 91.429 91.429 90.149-41.801 91.429-91.429z" />
<glyph unicode="&#xe907;" glyph-name="logout" d="M512 813.714c20.187 0 36.571-16.347 36.571-36.571s-16.384-36.571-36.571-36.571h-256c-20.151 0-36.571-16.384-36.571-36.571v-512c0-20.187 16.421-36.571 36.571-36.571h256c20.187 0 36.571-16.347 36.571-36.571s-16.384-36.571-36.571-36.571h-256c-60.489 0-109.714 49.225-109.714 109.714v512c0 60.489 49.225 109.714 109.714 109.714h256zM720.713 620.142l146.286-146.272c1.041-1.041 2.020-2.144 2.93-3.303l-2.93 3.289c1.296-1.296 2.475-2.664 3.536-4.092 0.659-0.879 1.281-1.801 1.861-2.753 0.217-0.362 0.423-0.712 0.622-1.065 0.481-0.848 0.933-1.731 1.35-2.634 0.245-0.532 0.481-1.079 0.704-1.63 0.302-0.747 0.578-1.503 0.83-2.271 0.184-0.561 0.354-1.123 0.51-1.689 0.212-0.774 0.402-1.568 0.565-2.371 0.135-0.646 0.247-1.28 0.342-1.916 0.108-0.753 0.199-1.533 0.265-2.319 0.062-0.644 0.099-1.28 0.12-1.916 0.004-0.386 0.010-0.792 0.010-1.199l-0.012-1.236c-0.021-0.624-0.058-1.248-0.111-1.871l0.123 3.107c0-1.854-0.138-3.675-0.403-5.454-0.088-0.617-0.2-1.251-0.329-1.882-0.17-0.818-0.36-1.612-0.575-2.395-0.152-0.556-0.322-1.119-0.505-1.678-0.253-0.77-0.529-1.526-0.829-2.271-0.224-0.554-0.46-1.1-0.711-1.643-0.411-0.893-0.863-1.776-1.35-2.638-0.194-0.34-0.4-0.69-0.612-1.038-0.585-0.965-1.207-1.888-1.869-2.78-0.196-0.254-0.399-0.52-0.606-0.783-0.997-1.281-2.081-2.488-3.24-3.619l-145.972-145.963c-7.131-7.131-16.494-10.715-25.856-10.715s-18.725 3.584-25.856 10.715c-14.299 14.299-14.299 37.413 0 51.712l83.822 83.858h-350.537c-20.187 0-36.571 16.347-36.571 36.571s16.384 36.571 36.571 36.571h350.61l-83.895 83.858c-14.299 14.299-14.299 37.413 0 51.712s37.413 14.299 51.712 0z" />
<glyph unicode="&#xe908;" glyph-name="menu-active" d="M281.6 455.314c0-49.633-42.495-91.429-91.429-91.429-50.221 0-91.429 41.796-91.429 91.429s42.495 91.429 91.429 91.429c48.934 0 90.141-41.796 91.429-91.429zM610.743 455.314c0-49.633-42.495-91.429-91.429-91.429-50.221 0-91.429 41.796-91.429 91.429s42.495 91.429 91.429 91.429c48.934 0 90.141-41.796 91.429-91.429zM939.886 455.314c0-49.633-42.495-91.429-91.429-91.429-50.221 0-91.429 41.796-91.429 91.429s42.495 91.429 91.429 91.429c48.934 0 90.141-41.796 91.429-91.429z" />
<glyph unicode="&#xe909;" glyph-name="menu-empleos" d="M841.143 82.286h-658.286c-20.151 0-36.571 16.384-36.571 36.571v274.798l289.097-133.413c24.357-11.227 50.469-16.859 76.617-16.859s52.297 5.632 76.617 16.859l289.097 133.413v-274.798c0-20.187-16.421-36.571-36.571-36.571zM182.857 594.286h658.286c20.151 0 36.571-16.421 36.571-36.571v-83.493l-319.744-147.566c-29.184-13.495-62.683-13.531-91.941 0l-319.744 147.566v83.493c0 20.151 16.421 36.571 36.571 36.571zM365.714 777.106c0 20.151 16.421 36.608 36.608 36.608h219.355c20.187 0 36.608-16.457 36.608-36.608v-109.678h-292.571v109.678zM841.143 667.429h-109.714v109.678c0 60.489-49.225 109.751-109.751 109.751h-219.355c-60.526 0-109.751-49.262-109.751-109.751v-109.678h-109.714c-60.489 0-109.714-49.225-109.714-109.714v-438.857c0-60.489 49.225-109.714 109.714-109.714h658.286c60.489 0 109.714 49.225 109.714 109.714v438.857c0 60.489-49.225 109.714-109.714 109.714z" />
<glyph unicode="&#xe90a;" glyph-name="menu-red" d="M512 374.857c161.28 0 292.571-104.558 292.571-233.143v-59.429c0-20.187-16.384-36.571-36.571-36.571s-36.571 16.384-36.571 36.571v59.429c0 88.247-98.414 160-219.429 160-121.051 0-219.429-71.753-219.429-160v-59.429c0-20.187-16.384-36.571-36.571-36.571s-36.571 16.384-36.571 36.571v59.429c0 128.585 131.255 233.143 292.571 233.143zM117.504 338.578c12.471 15.909 35.438 18.651 51.346 6.181 15.872-12.434 18.651-35.474 6.181-51.31-18.798-24.027-28.745-51.2-28.745-78.629v-95.963c0-20.224-16.384-36.571-36.571-36.571-20.224 0-36.571 16.347-36.571 36.571v96c0 43.959 15.323 86.674 44.361 123.721zM855.15 344.795c15.835 12.434 38.839 9.691 51.31-6.217 29.038-36.937 44.361-79.726 44.361-123.721v-96c0-20.224-16.347-36.571-36.571-36.571-20.187 0-36.571 16.347-36.571 36.571v96.037c0 27.429-9.947 54.565-28.745 78.555-12.434 15.872-9.691 38.875 6.217 51.346zM512 850.286c110.921 0 201.143-90.222 201.143-201.143s-90.222-201.143-201.143-201.143-201.143 90.222-201.143 201.143 90.222 201.143 201.143 201.143zM787.602 707.803c9.509 17.774 31.744 24.393 49.518 14.811 47.543-25.6 77.166-74.789 77.166-128.293 0-76.178-59.758-140.069-136.046-145.445l-2.56-0.073c-19.054 0-35.109 14.702-36.462 34.011-1.39 20.114 13.787 37.595 33.938 39.058 38.144 2.597 67.986 34.487 67.986 72.411 0 26.587-14.811 51.054-38.693 63.927-17.774 9.618-24.43 31.781-14.848 49.591zM186.843 722.615c17.774 9.582 39.936 2.926 49.518-14.848s2.926-39.936-14.848-49.518c-23.845-12.873-38.656-37.376-38.656-63.963 0-37.961 29.879-69.778 68.059-72.485 20.114-1.463 35.291-18.907 33.865-39.058-1.353-19.273-17.408-34.011-36.425-34.011l-2.633 0.11c-76.288 5.449-136.009 69.339-136.009 145.445 0 53.504 29.55 102.656 77.166 128.293zM512 777.143c-70.583 0-128-57.417-128-128s57.417-128 128-128 128 57.417 128 128-57.417 128-128 128z" />
<glyph unicode="&#xe90b;" glyph-name="menu-home" horiz-adv-x="992" d="M845.714 118.857c0-20.187-16.421-36.571-36.571-36.571h-146.286v182.857c0 100.791-82.030 182.857-182.857 182.857s-182.857-82.066-182.857-182.857v-182.857h-146.286c-20.151 0-36.571 16.384-36.571 36.571v384.914l365.714 299.264 365.714-299.264v-384.914zM589.714 82.286h-219.429v182.857c0 60.489 49.225 109.714 109.714 109.714s109.714-49.225 109.714-109.714v-182.857zM905.435 549.449l-402.286 329.143c-13.458 11.008-32.841 11.008-46.299 0l-402.286-329.143c-8.485-6.949-13.422-17.335-13.422-28.306v-402.286c0-60.526 49.225-109.714 109.714-109.714h658.286c60.489 0 109.714 49.189 109.714 109.714v402.286c0 10.935-4.937 21.321-13.422 28.27z" />
<glyph unicode="&#xe90c;" glyph-name="search" d="M862.501 172.251l-153.71 150.784c39.022 51.529 61.659 114.578 61.659 183.040 0 169.216-139.666 307.639-312.101 307.639-171.63 0-312.064-137.655-312.064-307.639s139.666-307.639 312.064-307.639c64 0 124.050 19.2 174.007 52.297l155.246-153.051c10.13-10.021 24.174-15.397 37.449-15.397s27.319 5.376 37.449 15.36c20.297 20.773 20.297 53.87 0 74.606zM252.379 506.112c0 112.274 92.855 203.813 205.97 203.813 113.152 0 205.97-91.538 205.97-203.045 0-111.543-92.050-203.813-205.97-203.813-113.883 0-205.97 91.502-205.97 203.045z" />
<glyph unicode="&#xe90d;" glyph-name="seguir" d="M731.429 850.286c100.827 0 182.857-82.030 182.857-182.857v-438.857c0-100.827-82.030-182.857-182.857-182.857h-438.857c-100.827 0-182.857 82.030-182.857 182.857v438.857c0 100.827 82.030 182.857 182.857 182.857zM731.429 777.143h-438.857c-60.489 0-109.714-49.225-109.714-109.714v-438.857c0-60.489 49.225-109.714 109.714-109.714h438.857c60.489 0 109.714 49.225 109.714 109.714v438.857c0 60.489-49.225 109.714-109.714 109.714zM512 630.857c20.224 0 36.571-16.384 36.571-36.571v-109.714h109.714c20.224 0 36.571-16.384 36.571-36.571s-16.347-36.571-36.571-36.571h-109.714v-109.714c0-20.187-16.347-36.571-36.571-36.571s-36.571 16.384-36.571 36.571v109.714h-109.714c-20.224 0-36.571 16.384-36.571 36.571s16.347 36.571 36.571 36.571h109.714v109.714c0 20.187 16.347 36.571 36.571 36.571z" />
<glyph unicode="&#xe90e;" horiz-adv-x="1280" d="M128 926.28h1024c70.692 0 128-57.308 128-128v-704c0-70.692-57.308-128-128-128h-1024c-70.692 0-128 57.308-128 128v704c0 70.692 57.308 128 128 128z" />
<glyph unicode="&#xe90f;" horiz-adv-x="1280" d="M0 919.973h1408v-932.571h-1408v932.571z" />
<glyph unicode="&#xe910;" horiz-adv-x="1280" d="M0 793.818h1408v-117.019h-1408v117.019z" />
<glyph unicode="&#xe911;" horiz-adv-x="1280" d="M0 559.751h1408v-117.019h-1408v117.019z" />
<glyph unicode="&#xe912;" horiz-adv-x="1280" d="M0 325.714h1408v-117.019h-1408v117.019z" />
<glyph unicode="&#xe913;" horiz-adv-x="1280" d="M0 91.647h1408v-117.019h-1408v117.019z" />
<glyph unicode="&#xe914;" horiz-adv-x="1280" d="M0 919.973h710.835v-507.429h-710.835v507.429z" />
<glyph unicode="&#xe915;" horiz-adv-x="1280" d="M271.167 705.745l-11.327-35.895h-36.639l29.647-22.173-11.327-35.892 29.647 22.173 29.628-22.173-11.325 35.892 29.647 22.173h-36.642z" />
<glyph unicode="&#xe916;" horiz-adv-x="1280" d="M282.475 540.318l-11.308 35.892-11.327-35.892h-36.639l29.647-22.175-11.327-35.892 29.647 22.175 29.628-22.175-11.325 35.892 29.647 22.175z" />
<glyph unicode="&#xe917;" horiz-adv-x="1280" d="M127.63 540.318l-11.311 35.892-11.327-35.892h-36.639l29.647-22.175-11.327-35.892 29.647 22.175 29.631-22.175-11.325 35.892 29.642 22.175z" />
<glyph unicode="&#xe918;" horiz-adv-x="1280" d="M116.319 705.745l-11.327-35.895h-36.639l29.647-22.173-11.327-35.892 29.647 22.173 29.631-22.173-11.325 35.892 29.642 22.173h-36.636z" />
<glyph unicode="&#xe919;" horiz-adv-x="1280" d="M271.167 835.282l-11.327-35.898h-36.639l29.647-22.175-11.327-35.892 29.647 22.175 29.628-22.175-11.325 35.892 29.647 22.175h-36.642z" />
<glyph unicode="&#xe91a;" horiz-adv-x="1280" d="M116.319 835.282l-11.327-35.898h-36.639l29.647-22.175-11.327-35.892 29.647 22.175 29.631-22.175-11.325 35.892 29.642 22.175h-36.636z" />
<glyph unicode="&#xe91b;" horiz-adv-x="1280" d="M426.012 705.745l-11.325-35.895h-36.639l29.644-22.173-11.322-35.892 29.642 22.173 29.633-22.173-11.327 35.892 29.647 22.173h-36.639z" />
<glyph unicode="&#xe91c;" horiz-adv-x="1280" d="M437.326 540.318l-11.314 35.892-11.325-35.892h-36.639l29.644-22.175-11.322-35.892 29.642 22.175 29.633-22.175-11.327 35.892 29.647 22.175z" />
<glyph unicode="&#xe91d;" horiz-adv-x="1280" d="M592.174 540.318l-11.311 35.892-11.327-35.892h-36.636l29.642-22.175-11.325-35.892 29.647 22.175 29.631-22.175-11.327 35.892 29.647 22.175z" />
<glyph unicode="&#xe91e;" horiz-adv-x="1280" d="M580.863 705.745l-11.327-35.895h-36.636l29.642-22.173-11.325-35.892 29.647 22.173 29.631-22.173-11.327 35.892 29.647 22.173h-36.639z" />
<glyph unicode="&#xe91f;" horiz-adv-x="1280" d="M426.012 835.282l-11.325-35.898h-36.639l29.644-22.175-11.322-35.892 29.642 22.175 29.633-22.175-11.327 35.892 29.647 22.175h-36.639z" />
<glyph unicode="&#xe920;" horiz-adv-x="1280" d="M580.863 835.282l-11.327-35.898h-36.636l29.642-22.175-11.325-35.892 29.647 22.175 29.631-22.175-11.327 35.892 29.647 22.175h-36.639z" />
<glyph unicode="&#xe921;" glyph-name="conectar" d="M377.893 381.513c147.895 0 268.215-95.086 268.215-211.968v-54.016c0-18.359-15.031-33.243-33.536-33.243s-33.536 14.885-33.536 33.28v53.979c0 80.238-90.185 145.481-201.143 145.481-110.921 0-201.143-65.243-201.143-145.481v-54.016c0-18.359-14.994-33.243-33.499-33.243s-33.536 14.885-33.536 33.28v53.979c0 116.882 120.32 211.968 268.178 211.968zM780.178 580.974c18.505 0 33.536-14.885 33.536-33.243v-66.487h67.035c18.505 0 33.536-14.885 33.536-33.243s-14.994-33.28-33.536-33.28h-67.035v-66.45c0-18.359-14.994-33.28-33.536-33.28-18.505 0-33.499 14.921-33.499 33.28v66.45h-67.072c-18.505 0-33.499 14.885-33.499 33.243s14.994 33.28 33.499 33.28h67.072v66.45c0 18.359 14.994 33.28 33.499 33.28zM377.893 813.714c101.669 0 184.393-82.030 184.393-182.857s-82.688-182.857-184.393-182.857c-101.669 0-184.357 82.030-184.357 182.857s82.688 182.857 184.357 182.857zM377.893 747.227c-64.695 0-117.321-52.187-117.321-116.37s52.663-116.37 117.321-116.37c64.731 0 117.358 52.187 117.358 116.37s-52.663 116.37-117.358 116.37z" />
<glyph unicode="&#xe923;" d="M512 886.857c-241.994 0-438.857-196.863-438.857-438.857s196.863-438.857 438.857-438.857c241.994 0 438.857 196.863 438.857 438.857s-196.863 438.857-438.857 438.857z" />
<glyph unicode="&#xe924;" d="M610.998 290.999c14.299-14.299 14.299-37.413 0-51.711-7.131-7.131-16.493-10.716-25.857-10.716-9.362 0-18.725 3.585-25.857 10.716l-182.856 182.856c-14.299 14.299-14.299 37.413 0 51.711l182.858 182.858c14.299 14.299 37.413 14.299 51.711 0s14.299-37.413 0-51.711l-157.001-157.001 157.001-157.001z" />
<glyph unicode="&#xe925;" glyph-name="bullet" d="M449.164 687.709c-67.491-13.964-162.909-111.709-174.545-181.527-48.873-246.691 235.055-402.618 411.927-228.073 74.473 76.8 86.109 195.491 32.582 300.218-39.564 76.8-167.564 128-269.964 109.382zM600.436 536.436c34.909-34.909 34.909-141.964 0-176.873s-141.964-34.909-176.873 0c-34.909 34.909-34.909 141.964 0 176.873s141.964 34.909 176.873 0z" />
<glyph unicode="&#xe926;" d="M884.364 448c0-205.651-166.713-372.364-372.364-372.364s-372.364 166.713-372.364 372.364c0 205.651 166.713 372.364 372.364 372.364s372.364-166.713 372.364-372.364z" />
<glyph unicode="&#xe927;" d="M512 913.455c256.931 0 465.455-208.524 465.455-465.455s-208.524-465.455-465.455-465.455c-256.931 0-465.455 208.524-465.455 465.455s208.524 465.455 465.455 465.455zM750.182 675.421l-330.705-323.364-107.368 105.243c-7.183 7.041-18.66 7.104-25.92 0.142l-47.732-45.775c-7.421-7.117-7.668-18.903-0.551-26.324l0.365-0.37 168.208-165.864c7.219-7.118 18.806-7.152 26.067-0.076l392.935 382.945c7.364 7.177 7.516 18.964 0.339 26.328l-0.514 0.507-49.29 46.799c-7.262 6.895-18.676 6.811-25.836-0.19z" />
<glyph unicode="&#xe92a;" glyph-name="arrow-up" d="M671.923 328.755c4.718-5.376 11.603-8.75 19.277-8.75 14.143 0 25.608 11.465 25.608 25.608 0 6.47-2.399 12.379-6.356 16.887l0.025-0.029-179.2 204.8c-4.717 5.378-11.603 8.755-19.277 8.755s-14.56-3.377-19.252-8.726l-0.025-0.029-179.2-204.8c-3.932-4.479-6.331-10.388-6.331-16.858 0-14.143 11.465-25.608 25.608-25.608 7.673 0 14.558 3.375 19.252 8.721l0.025 0.029 159.923 182.784 159.923-182.784z" />
<glyph unicode="&#xe92b;" glyph-name="dropdown" d="M297.794 509.017l201.338-192.553c7.198-6.884 18.539-6.884 25.736 0l201.338 192.553c7.431 7.107 7.694 18.892 0.587 26.324-3.512 3.673-8.373 5.75-13.455 5.75h-402.676c-10.283 0-18.618-8.336-18.618-18.618 0-5.082 2.077-9.943 5.75-13.455z" />
<glyph unicode="&#xe92c;" glyph-name="edit" d="M186.182 226.002v-115.15c0-10.606 8.333-18.939 18.939-18.939h115.15c4.924 0 9.848 1.894 13.257 5.682l413.632 413.253-142.044 142.044-413.253-413.253c-3.788-3.788-5.682-8.333-5.682-13.636zM857.008 620.695c14.773 14.773 14.773 38.636 0 53.409l-88.635 88.635c-14.773 14.773-38.636 14.773-53.409 0l-69.317-69.317 142.044-142.044 69.317 69.317z" />
<glyph unicode="&#xe92d;" glyph-name="hidde" d="M115.902 904.403l852.449-862.893c11.927-13.892 11.927-13.892 0-25.529l-31.525-31.912c-13.028-11.931-13.028-11.931-25.22 0l-165.376 167.402c-69.428-38.927-149.276-61.085-234.229-61.085-220.579 0-406.745 149.386-465.455 353.819 28.535 99.363 87.18 185.722 165.252 248.245l-152.642 154.512c-12.61 12.765-12.61 12.765 0 25.529l31.525 31.912c11.923 12.069 13.298 12.069 25.22 0zM674.269 224.312l-83.857 84.884c-22.987-13.744-49.791-21.63-78.412-21.63-85.353 0-154.545 70.13-154.545 156.639 0 28.937 7.742 56.042 21.241 79.302l-83.857 84.884c-33.759-45.794-53.747-102.624-53.747-164.186 0-151.646 121.29-274.579 270.909-274.579 60.863 0 117.039 20.343 162.269 54.685v0zM324.595 759.945c57.652 24.527 120.968 38.079 187.405 38.079 220.579 0 406.745-149.386 465.455-353.819-23.821-82.947-68.624-156.831-128.195-215.353l-93.744 94.893c17.546 36.369 27.394 77.249 27.394 120.46 0 151.646-121.29 274.579-270.909 274.579-42.757 0-83.2-10.039-119.161-27.919l-68.245 69.081zM644.040 436.587c-33.766 34.179-80.708 81.697-140.757 142.482-12.759 12.916-0.753 21.776 8.717 21.776 85.353 0 154.545-70.13 154.545-156.639 0-9.53-11.239-19.023-22.506-7.619z" />
<glyph unicode="&#xe92e;" glyph-name="show" d="M46.545 424.727c58.709 201.701 244.876 349.091 465.455 349.091s406.745-147.39 465.455-349.091c-58.709-201.701-244.876-349.091-465.455-349.091s-406.745 147.39-465.455 349.091v0zM512 153.818c149.619 0 270.909 121.29 270.909 270.909s-121.29 270.909-270.909 270.909c-149.619 0-270.909-121.29-270.909-270.909s121.29-270.909 270.909-270.909zM512 270.182c-85.353 0-154.545 69.192-154.545 154.545s69.192 154.545 154.545 154.545c85.353 0 154.545-69.192 154.545-154.545s-69.192-154.545-154.545-154.545z" />
<glyph unicode="&#xe92f;" glyph-name="security" d="M685.1 521.276h-16.428v77.69c0 70.627-59.627 128.307-132.639 128.307h-48.675c-73.012 0-132.639-57.679-132.639-128.307v-77.102h-16.428c-32.856 0-59.018-25.897-59.018-57.091v-238.956c0-31.782 26.771-57.091 59.018-57.091h347.418c32.856 0 59.018 25.897 59.018 57.091v238.368c0 31.782-26.771 57.091-59.627 57.091zM434.424 598.966c0 28.251 23.729 51.205 52.934 51.205h48.675c29.205 0 52.934-22.954 52.934-51.205v-77.102h-154.543v77.102z" />
<glyph unicode="&#xe930;" glyph-name="add" d="M817.87 521.114h-218.369c-7.344 0-13.299 5.21-13.299 11.636v229.432c0 32.131-37.481 58.182-74.202 58.182s-71.466-26.051-71.466-58.182v-229.432c0-6.426-5.955-11.636-13.299-11.636h-221.106c-36.721 0-66.494-40.983-66.494-73.114s29.773-75.598 66.494-75.598h221.106c7.344 0 13.299-5.21 13.299-11.636v-226.948c0-32.131 34.745-58.182 71.466-58.182s74.202 26.051 74.202 58.182v226.948c0 6.426 5.955 11.636 13.299 11.636h218.369c36.721 0 66.494 43.467 66.494 75.598s-29.773 73.114-66.494 73.114z" />
<glyph unicode="&#xe931;" glyph-name="close" d="M865.272 217.593l-583.647 583.679c-25.454 25.456-66.723 25.456-92.137 0l-30.76-30.714c-25.454-25.464-25.454-66.734 0-92.15l583.647-583.679c25.462-25.456 66.73-25.456 92.145 0l30.712 30.714c25.502 25.416 25.502 66.694 0.040 92.15v0zM742.37 801.278l-583.643-583.684c-25.454-25.456-25.454-66.735 0-92.151l30.712-30.714c25.462-25.456 66.73-25.456 92.145 0l583.683 583.644c25.462 25.456 25.462 66.727 0 92.143l-30.712 30.714c-25.454 25.504-66.722 25.504-92.184 0.048z" />
<glyph unicode="&#xe932;" glyph-name="logo" horiz-adv-x="4632" d="M4551.672 924.53c-35.979 0-65.257-29.388-65.257-65.528 0-36.128 29.278-65.516 65.257-65.516 35.99 0 65.257 29.388 65.257 65.516 0 36.139-29.267 65.528-65.257 65.528zM4551.672 777.958c-44.497 0-80.709 36.352-80.709 81.045 0 44.704 36.213 81.056 80.709 81.056 44.508 0 80.709-36.352 80.709-81.056 0-44.693-36.202-81.045-80.709-81.045zM4552.701 847.386c5.393 0 9.434 1.295 12.093 3.874s4.009 6.49 4.009 11.735c0 5.169-1.329 9.006-3.955 11.509-2.636 2.516-6.689 3.773-12.147 3.773h-19.947v-30.891h19.947zM4578.575 808.861c0-1.145-0.381-2.088-1.133-2.805-0.763-0.717-1.634-1.082-2.625-1.082-1.514 0-2.702 0.755-3.551 2.289l-13.236 24.149c-1.71 3.132-3.486 5.27-5.327 6.452-1.841 1.17-4.336 1.761-7.495 1.761h-12.452v-29.746c0-1.446-0.36-2.604-1.089-3.484-0.719-0.868-1.678-1.308-2.854-1.308-1.264 0-2.233 0.44-2.963 1.308-0.719 0.88-1.079 2.038-1.079 3.484v71.579c0 1.371 0.37 2.465 1.122 3.32 0.763 0.83 1.765 1.245 3.007 1.245h24.49c7.571 0 13.345-1.937 17.333-5.823 3.987-3.861 5.97-9.559 5.97-17.093 0-6.377-1.591-11.509-4.783-15.395-3.192-3.861-7.746-6.226-13.672-7.056 1.634-0.616 3.127-1.597 4.434-2.968 1.318-1.371 2.636-3.258 3.955-5.698l11.265-20.514c0.458-0.843 0.686-1.711 0.686-2.616v0zM4565.813 874.227c2.78-3.020 4.184-7.358 4.184-12.933 0-3.395-0.516-6.359-1.547-8.857 1.242 2.419 1.853 5.382 1.853 8.959 0 5.621-1.328 9.697-4.060 12.433-0.143 0.136-0.277 0.273-0.43 0.397v0zM4538.399 851.143h14.175c3.907 0 6.763 0.863 8.482 2.566 1.567 1.567 2.321 4.042 2.321 7.585 0 3.463-0.736 5.87-2.254 7.358-1.691 1.658-4.566 2.498-8.549 2.498h-14.175v-20.007zM4551.724 843.263c0.888-0.318 1.71-0.715 2.455-1.204l0.019-0.023c0.105 0.477 0.267 0.908 0.487 1.294-0.678-0.045-1.385-0.068-2.111-0.068h-0.85zM4531.713 878.156l-0.325-64.813 0.42-0.375-0.029 27.229c0 1.533 0.726 2.85 1.786 3.509-1.060 0.647-1.786 1.964-1.786 3.497v27.876c0 1.249 0.478 2.339 1.223 3.077h-1.29zM4572.194 812.423l2.073-2.532-1.758 2.532-0.353 0.511c-0.057-0.057-0.115-0.17-0.162-0.284l0.201-0.227zM4571.974 804.975c-2.455 0-4.547 1.374-5.903 3.861l-11.615 21.858c-1.49 2.771-2.722 3.963-3.486 4.474-1.089 0.715-2.818 1.090-4.967 1.090h-7.603v-22.914c0-2.918-1.022-4.792-1.863-5.859-1.27-1.578-2.961-2.407-4.91-2.407-2.522 0-4.107 1.306-4.986 2.407-0.85 1.056-1.872 2.93-1.872 5.859v64.62c0 2.305 0.688 4.326 2.006 5.836 1.299 1.453 2.999 2.226 4.938 2.226h21.473c7.403 0 13.229-2.089 17.327-6.177 4.251-4.269 6.409-10.48 6.409-18.451 0-6.779-1.719-12.365-5.101-16.601-1.834-2.282-4.060-4.076-6.686-5.371 0.831-1.147 1.643-2.475 2.464-4.031l9.858-18.508c0.745-1.397 1.118-2.907 1.118-4.462 0-2.203-0.783-4.179-2.207-5.564-1.251-1.238-2.78-1.885-4.394-1.885v0zM2667.3 670.349l-21.284-189.575h-93.871l19.762 175.994c4.288 38.277-18.105 56.198-48.145 56.198-34.429 0-60.438-19.763-65.353-63.597l-18.922-168.595h-93.871l48.525 432.268h93.86l-17.108-152.526c19.471 22.843 52.422 37.663 93.714 37.663 63.226 0 112.054-44.47 102.694-127.83zM2935.602 642.874c5.104 46.048-22.49 74.92-65 74.92-42.543 0-76.565-28.871-81.68-74.92-5.126-46.059 22.49-74.92 65.033-74.92 42.51 0 76.51 28.86 81.647 74.92v0zM3045.097 796.386l-34.143-307.013h-92.429l3.208 28.85c-22.92-23.324-54.703-37.449-95.99-37.449-80.721 0-139.415 70.614-129.24 162.1 10.165 91.497 84.547 162.1 165.279 162.1 41.287 0 69.928-14.125 87.678-37.449l3.208 28.86h92.429zM3393.684 674.408l-21.274-193.634h-93.874l19.751 179.762c4.288 39.096-18.105 57.402-48.146 57.402-34.419 0-60.429-20.186-65.345-64.959l-18.934-172.205h-93.863l34.665 315.378h93.874l-3.258-29.647c19.471 23.332 52.423 38.469 93.717 38.469 63.217 0 112.046-45.422 102.686-130.567zM3691.871 644.717c4.715 43.539-22.924 73.192-66.739 73.192-43.838 0-77.914-29.653-82.629-73.192-4.715-43.528 22.924-73.158 66.761-73.158 43.805 0 77.881 29.631 82.607 73.158v0zM3798.384 796.139l-32.464-299.665c-11.495-105.991-97.205-150.784-179.282-150.784-64.2 0-115.226 24.603-137.995 76.338l84.053 46.685c9.342-22.072 25.32-39.731 66.044-39.731 43.208 0 72.194 22.688 77.053 67.492l3.147 29.015c-23.156-25.868-54.438-41.008-94.544-41.008-87.642 0-143.913 73.192-134.472 160.236 9.43 87.066 81.569 160.258 169.2 160.258 40.116 0 68.108-15.151 85.666-41.008l3.478 32.173h90.116zM4065.541 642.874c5.116 46.048-22.491 74.92-65.002 74.92-42.534 0-76.556-28.871-81.672-74.92-5.138-46.059 22.469-74.92 65.024-74.92 42.512 0 76.512 28.86 81.65 74.92v0zM4175.028 796.386l-34.122-307.013h-92.443l3.219 28.85c-22.932-23.324-54.716-37.449-96.004-37.449-80.724 0-139.42 70.614-129.244 162.1 10.154 91.497 84.56 162.1 165.295 162.1 41.288 0 69.919-14.125 87.647-37.449l3.219 28.86h92.432zM4417.156 804.975l-11.374-108.067c-36.757 6.364-91.551-9.546-98.183-72.466l-15.111-143.668h-90.557l33.43 317.859h90.568l-5.951-56.589c16.558 42.586 59.147 62.931 97.179 62.931zM2292.933 102.551c10.497 91.475 90.44 162.089 187.066 162.089 61.665 0 112.731-31.313 134.647-78.592l-88.62-46.68c-8.337 21.493-29.752 34.408-57.719 34.408-41.33 0-75.154-28.871-80.010-71.225-4.868-42.375 22.36-71.236 63.679-71.236 27.967 0 52.976 12.883 65.601 34.375l78.009-46.037c-32.834-47.901-90.462-79.214-152.765-79.214-96.615 0-160.362 70.614-149.887 162.111zM2848.050 134.485c-5.9 35.596-32.211 48.479-59.957 48.479-35.145 0-60.475-17.199-72.572-48.479h132.529zM2778.908 22.727c25.264 0 47.948 9.809 61.754 23.335l69.253-42.375c-34.836-41.754-82.817-63.247-141.384-63.247-105.412 0-162.888 70.625-152.732 162.111 10.178 91.475 84.592 162.089 181.999 162.089 89.996 0 148.828-69.372 138.517-162.089-1.423-12.904-4.014-25.166-7.785-36.86h-218.809c8.149-31.901 35.288-42.964 69.187-42.964v0zM3286.072 134.084l-21.273-193.645h-93.882l19.75 179.773c4.299 39.096-18.093 57.379-48.133 57.379-34.429 0-60.438-20.186-65.353-64.959l-18.922-172.194h-93.871l34.653 315.378h93.871l-3.258-29.658c19.471 23.344 52.433 38.48 93.736 38.48 63.215 0 112.043-45.411 102.682-130.556zM3455.989 166.925l-12.106-111.434c-2.924-27.062 19.621-29.576 60.618-27.062l-9.303-85.601c-122.262-12.593-153.404 24.559-143.825 112.663l12.095 111.434h-49.34l9.833 90.651h49.34l6.5 59.79 95.589 28.325-9.557-88.115h63.52l-9.844-90.651h-63.52zM3771.481 264.64l-11.374-108.071c-36.735 6.364-91.54-9.535-98.172-72.468l-15.122-143.662h-90.557l33.451 317.859h90.568l-5.951-56.591c16.558 42.599 59.126 62.933 97.157 62.933zM4011.715 102.551c5.137 46.037-22.479 74.898-65.001 74.898-42.533 0-76.532-28.86-81.67-74.898-5.115-46.081 22.49-74.92 65.023-74.92 42.511 0 76.532 28.839 81.648 74.92v0zM4121.222 256.052l-34.143-307.013h-92.43l3.208 28.85c-22.92-23.313-54.693-37.449-95.98-37.449-80.722 0-139.416 70.614-129.252 162.111 10.165 91.475 84.569 162.089 165.302 162.089 41.287 0 69.896-14.114 87.645-37.46l3.219 28.871h92.43zM4195.236 399.724h87.404l-47.111-459.284h-87.404zM637.894 532.972l-71.989 56.1 718.314-4.337 68.424-108.236-646.5 3.283-68.249 53.19zM977.706 314.292l-115.994 96.619 534.126-2.712 61.195-96.838-479.328 2.932zM1559.271 276.694l-237.652 375.901-925.215 5.589-188.551 139.509 1719.039-9.388c18.94-55.782 29.209-115.561 28.92-177.799-1.023-212.652-123.666-396.040-301.358-484.368l-95.183 150.556zM1991.073 810.266l-15.561 45.855-1975.511 10.794 373.942-276.68 73.050-0.439 57.368-38.937 178.414-139.037 72.087-0.373 198.207-165.094 547.183-3.338 129.641-205.053 54.645 27.166c208.027 103.405 337.953 312.257 339.075 545.036 0.31 68.201-10.625 135.523-32.54 200.101v0z" />
<glyph unicode="&#xe933;" glyph-name="disable-check" d="M414.255 897.939c-353.745-88.436-479.418-521.309-223.418-772.655 183.079-179.976 467.006-178.424 643.879 1.552 271.515 277.721 103.952 736.97-283.927 777.309-41.891 4.655-103.952 1.552-136.533-6.206zM707.491 764.509c46.545-27.927 93.091-74.473 122.57-121.018 41.891-68.267 46.545-89.988 46.545-195.491s-4.655-127.224-46.545-195.491c-29.479-46.545-76.024-93.091-122.57-122.57-111.709-68.267-279.273-68.267-390.982 0-246.691 153.6-232.727 519.758 27.927 650.085 114.812 58.958 252.897 52.752 363.055-15.515z" />
<glyph unicode="&#xe935;" glyph-name="calendar" d="M646.095 780.069c18.005 0 32.844-13.553 34.872-31.014l0.236-4.094-0.024-64 130.706-0.022c18.005 0 32.844-13.553 34.872-31.014l0.236-4.094v-462.607c0-19.39-15.719-35.109-35.109-35.109v0h-596.846c-19.39 0-35.109 15.719-35.109 35.109v0 462.607c0 19.39 15.719 35.109 35.109 35.109v0l130.67 0.022 0.012 64c0 19.39 15.719 35.109 35.109 35.109 18.005 0 32.844-13.553 34.872-31.014l0.236-4.094-0.012-64h195.035l0.024 64c0 19.39 15.719 35.109 35.109 35.109zM345.71 610.779l-95.561-0.037v-392.411h526.629v392.411l-95.598 0.037 0.024-31.036c0-19.39-15.719-35.109-35.109-35.109-18.005 0-32.844 13.553-34.872 31.014l-0.236 4.094-0.024 31.036h-195.035l0.012-31.036c0-19.39-15.719-35.109-35.109-35.109-18.005 0-32.844 13.553-34.872 31.014l-0.236 4.094-0.012 31.036zM417.402 447.57c0-20.198-16.374-36.571-36.571-36.571s-36.571 16.374-36.571 36.571c0 20.198 16.374 36.571 36.571 36.571s36.571-16.374 36.571-36.571zM417.402 315.396c0-20.198-16.374-36.571-36.571-36.571s-36.571 16.374-36.571 36.571c0 20.198 16.374 36.571 36.571 36.571s36.571-16.374 36.571-36.571zM550.034 447.57c0-20.198-16.374-36.571-36.571-36.571s-36.571 16.374-36.571 36.571c0 20.198 16.374 36.571 36.571 36.571s36.571-16.374 36.571-36.571zM550.034 315.396c0-20.198-16.374-36.571-36.571-36.571s-36.571 16.374-36.571 36.571c0 20.198 16.374 36.571 36.571 36.571s36.571-16.374 36.571-36.571zM682.667 447.57c0-20.198-16.374-36.571-36.571-36.571s-36.571 16.374-36.571 36.571c0 20.198 16.374 36.571 36.571 36.571s36.571-16.374 36.571-36.571zM682.667 315.396c0-20.198-16.374-36.571-36.571-36.571s-36.571 16.374-36.571 36.571c0 20.198 16.374 36.571 36.571 36.571s36.571-16.374 36.571-36.571z" />
<glyph unicode="&#xe936;" glyph-name="locked" d="M685.1 521.276h-16.428v77.69c0 70.627-59.627 128.307-132.639 128.307h-48.675c-73.012 0-132.639-57.679-132.639-128.307v-77.102h-16.428c-32.856 0-59.018-25.897-59.018-57.091v-238.956c0-31.782 26.771-57.091 59.018-57.091h347.418c32.856 0 59.018 25.897 59.018 57.091v238.368c0 31.782-26.771 57.091-59.627 57.091zM434.424 598.966c0 28.251 23.729 51.205 52.934 51.205h48.675c29.205 0 52.934-22.954 52.934-51.205v-77.102h-154.543v77.102z" />
<glyph unicode="&#xe937;" d="M1024 448c0-282.77-229.23-512-512-512s-512 229.23-512 512c0 282.77 229.23 512 512 512s512-229.23 512-512z" />
<glyph unicode="&#xe938;" d="M524.8 678.4c-63.521 0-115.2-51.679-115.2-115.2s51.679-115.2 115.2-115.2c63.521 0 115.2 51.679 115.2 115.2s-51.679 115.2-115.2 115.2z" />
<glyph unicode="&#xe939;" d="M687.242 359.154c-35.744 40.785-83.13 63.246-133.428 63.246h-58.027c-50.298 0-97.684-22.461-133.428-63.246-35.569-40.585-55.158-94.158-55.158-150.852 0-9.003 6.495-16.302 14.507-16.302h406.187c8.012 0 14.507 7.299 14.507 16.302 0 56.695-19.589 110.267-55.158 150.852z" />
</font>
</defs>
</svg>
